<svg xmlns="http://www.w3.org/2000/svg" xmlns:xlink="http://www.w3.org/1999/xlink" width="18" height="13.213" viewBox="0 0 18 13.213">
  <defs>
    <clipPath id="clip-path">
      <rect id="長方形_3761" data-name="長方形 3761" width="18" height="13.213" fill="#55c5d9"/>
    </clipPath>
  </defs>
  <g id="グループ_6647" data-name="グループ 6647" transform="translate(-0.001)">
    <g id="グループ_1931" data-name="グループ 1931" transform="translate(0.001 0)" clip-path="url(#clip-path)">
      <path id="パス_4485" data-name="パス 4485" d="M10.823,6.843l7.557-5.7A2.043,2.043,0,0,0,16.555,0H2.641A2.043,2.043,0,0,0,.815,1.147l7.558,5.7a2.187,2.187,0,0,0,2.451,0" transform="translate(-0.598 0)" fill="#55c5d9"/>
      <path id="パス_4486" data-name="パス 4486" d="M11.129,16.541A3.564,3.564,0,0,1,9,17.2a3.56,3.56,0,0,1-2.128-.664L0,11.362V19.5a2.049,2.049,0,0,0,2.043,2.043H15.957A2.049,2.049,0,0,0,18,19.5v-8.14Z" transform="translate(0 -8.333)" fill="#55c5d9"/>
    </g>
  </g>
</svg>
