<?xml version="1.0" encoding="utf-8"?>
<!-- Generator: Adobe Illustrator 26.0.3, SVG Export Plug-In . SVG Version: 6.00 Build 0)  -->
<svg version="1.1" id="レイヤー_1" xmlns="http://www.w3.org/2000/svg" xmlns:xlink="http://www.w3.org/1999/xlink" x="0px"
	 y="0px" viewBox="0 0 420.2 94.5" style="enable-background:new 0 0 420.2 94.5;" xml:space="preserve">
<style type="text/css">
	.st0{fill:#F8BB4B;}
	.st1{fill:#F5A100;}
	.st2{fill:#00B4E2;}
	.st3{fill:#0080CC;}
	.st4{fill:#EE7951;}
	.st5{fill:#EA5720;}
	.st6{fill:#E94609;}
	.st7{fill:#FFFFFF;}
	.st8{fill:#231815;}
	.st9{fill:#A5A5A5;}
</style>
<g id="レイヤー_2_00000000182642677994662530000016617404055150530203_">
	<g id="レイヤー_1-2">
		<g id="レイヤー_2-2">
			<g id="レイヤー_1-3">
				<path id="パス_5319" class="st0" d="M56.7,28.1c0-0.3-0.1-0.5-0.1-0.8l0,0c0-0.8,0.2-1.5,0.6-2.2c0.3-0.5,0.7-1,1.1-1.4
					c0.3-0.2,0.5-0.4,0.8-0.5l0,0l2.2-2.6L49.2,6.2c1.6,1.8,1.4,4.6-0.5,6.1c-1.8,1.6-4.6,1.4-6.1-0.5v-0.1l14.3,17.1l0,0
					C56.8,28.7,56.7,28.4,56.7,28.1C56.7,28.2,56.7,28.2,56.7,28.1z"/>
				<path id="パス_5320" class="st1" d="M48.6,12.3c1.8-1.5,2.1-4.3,0.5-6.1l0,0c-1.5-1.9-4.3-2.1-6.1-0.6
					c-1.9,1.5-2.1,4.3-0.6,6.1l0.1,0.1l0,0c1.5,1.8,4.2,2.1,6,0.6L48.6,12.3z"/>
				<path id="パス_5321" class="st2" d="M64.5,30.2L64.5,30.2c-0.2,0.1-0.3,0.3-0.5,0.4l0,0c-0.2,0.1-0.4,0.2-0.5,0.3h-0.1
					l-0.6,0.3l0,0c-0.2,0.1-0.4,0.1-0.6,0.1H62c-0.4,0.1-0.9,0.1-1.3,0h-0.2c-0.2,0-0.4-0.1-0.6-0.1l0,0c-0.2-0.1-0.4-0.1-0.6-0.2
					l-0.1,0c-0.2-0.1-0.4-0.2-0.5-0.3l0,0c-0.2-0.1-0.3-0.3-0.5-0.4l0,0c-0.5-0.5-0.9-1.1-1.1-1.7l0,0V51c0-2.4,1.9-4.3,4.4-4.3
					c2.4,0,4.3,1.9,4.3,4.3l0,0V28.5C65.5,29.2,65,29.8,64.5,30.2z"/>
				<path id="パス_5322" class="st3" d="M61.3,46.7c-2.4,0-4.4,1.9-4.4,4.3l0,0l0,0l0,0c0,2.4,2,4.3,4.4,4.3
					c2.4,0,4.3-1.9,4.3-4.3l0,0C65.6,48.6,63.7,46.6,61.3,46.7L61.3,46.7z"/>
				<path id="パス_5323" class="st4" d="M73.9,12.3c-1.8-1.5-2.1-4.3-0.5-6.1L61.3,20.6l2.2,2.6c0.3,0.1,0.6,0.3,0.8,0.5
					c1.1,0.9,1.7,2.2,1.7,3.6l0,0c0,0.3,0,0.5-0.1,0.8 M65.9,28.2c-0.1,0.3-0.1,0.5-0.2,0.8l0,0L80,11.8c-1.5,1.8-4.3,2.1-6.1,0.5
					c0,0,0,0,0,0L65.9,28.2z"/>
				<path id="パス_5324" class="st5" d="M59.1,23c0.2-0.1,0.3-0.1,0.5-0.2h0.1c0.1-0.1,0.3-0.1,0.4-0.1h0.1c0.1,0,0.3,0,0.4-0.1
					H62l0.4,0.1h0.1l0.4,0.1H63c0.2,0.1,0.3,0.1,0.5,0.2l-2.2-2.6L59.1,23z"/>
				<path id="パス_5325" class="st6" d="M79.5,5.7c-1.8-1.5-4.6-1.3-6.1,0.5l0,0c-1.5,1.8-1.3,4.6,0.5,6.1
					c1.8,1.5,4.6,1.3,6.1-0.5l0,0C81.6,9.9,81.3,7.2,79.5,5.7L79.5,5.7z"/>
				<path id="パス_5326" class="st7" d="M65.9,27.9c0-0.3,0.1-0.5,0.1-0.8l0,0c0-0.2,0-0.4,0-0.6c0-0.2-0.1-0.4-0.1-0.6
					c0-0.2-0.1-0.3-0.2-0.5c-0.1-0.2-0.1-0.3-0.2-0.5l0,0c-0.3-0.5-0.7-1-1.1-1.4c-0.2-0.2-0.5-0.4-0.8-0.5L63,22.8h-0.1
					c-0.1-0.1-0.2-0.1-0.4-0.1h-0.1L62,22.6h-1.3c-0.1,0-0.3,0-0.4,0.1h-0.1c-0.1,0-0.3,0.1-0.4,0.1h-0.1L59.2,23
					c-0.3,0.1-0.6,0.3-0.8,0.5c-0.5,0.4-0.9,0.9-1.1,1.4l0,0c-0.3,0.5-0.5,1.1-0.5,1.7v0.6l0,0c0,0.3,0,0.5,0.1,0.8V28
					c0,0.2,0.1,0.5,0.2,0.7l0,0v0.1c0.2,0.7,0.6,1.2,1.1,1.7l0,0c0.2,0.1,0.3,0.3,0.5,0.4l0,0c0.2,0.1,0.4,0.2,0.5,0.3h0.1
					c0.2,0.1,0.4,0.2,0.6,0.2l0,0c0.2,0.1,0.4,0.1,0.6,0.1h0.2c0.4,0.1,0.9,0.1,1.3,0H62c0.2,0,0.4-0.1,0.6-0.1l0,0
					c0.2-0.1,0.4-0.1,0.6-0.2h0.1c0.2-0.1,0.4-0.2,0.5-0.3l0,0c0.2-0.1,0.3-0.3,0.5-0.4l0,0c0.5-0.5,0.9-1.1,1.1-1.7l0,0v-0.1
					c0.1-0.2,0.2-0.5,0.2-0.8c0-0.1,0-0.1,0.1-0.2S65.8,27.8,65.9,27.9z"/>
				<path id="パス_5327" class="st8" d="M121.3,37.8l-23.9-31c-0.5-0.6-1.2-1-1.9-1h-0.2c-1.3,0-2.4,1.1-2.4,2.4c0,0,0,0,0,0l0,0
					v43.7c0,1.3,1.1,2.4,2.4,2.4h2.9c1.3,0,2.4-1.1,2.4-2.4c0,0,0,0,0,0V23l24,30.8c0.5,0.6,1.2,0.9,1.9,0.9h0.1
					c1.3,0,2.4-1.1,2.4-2.4V8.8c0-0.6-0.3-1.3-0.7-1.7c-0.5-0.4-1.1-0.7-1.7-0.7h-2.9c-1.3,0-2.4,1.1-2.4,2.4L121.3,37.8z"/>
				<path id="パス_5328" class="st8" d="M25.3,28.1C23.2,27,21,26,18.8,25.2c-2.2-0.9-4-1.6-5.3-2.2c-1.1-0.5-2-1.2-2.8-2.1
					c-0.6-0.7-0.9-1.5-0.8-2.4c0-1.4,0.6-2.7,1.7-3.6c1.6-1.1,3.5-1.7,5.4-1.5l0,0c1.6,0,3.1,0.2,4.6,0.6c0.8,0.2,1.6,0.5,2.4,0.7
					c0.3,0.1,1.3,0.5,2.2,0.9c1.2,0.5,2.6,0,3.2-1.1l1.2-2.3c0.6-1.2,0.1-2.6-1.1-3.2c0,0,0,0,0,0c-0.8-0.4-1.6-0.7-1.9-0.9
					c-1.4-0.5-2.8-1-4.2-1.4C21.1,6.3,18.8,6,16.6,6h-0.1c-2.5,0-5,0.6-7.2,1.6c-2.2,1-4,2.5-5.3,4.5c-1.3,2-2,4.3-2,6.7
					c-0.1,2.4,0.7,4.7,2.2,6.6c1.3,1.7,2.9,3,4.8,4c2.1,1,4.2,1.9,6.4,2.7c1.8,0.6,3.5,1.4,5.2,2.2c1.1,0.6,2.1,1.4,2.8,2.4
					c0.7,1,1,2.2,1,3.4c0.1,1.3-0.3,2.6-1.1,3.7c-0.8,1.1-1.8,1.9-3,2.4c-1.4,0.6-2.8,0.9-4.3,0.8l0,0c-1.9,0-3.8-0.4-5.6-1.1
					c-1.2-0.5-2.4-1-3.6-1.7c-0.2-0.1-0.8-0.5-1.4-1C4.2,42.7,2.7,43,1.9,44c0,0.1-0.1,0.1-0.1,0.2l-1.4,2.5
					c-0.6,1.1-0.3,2.5,0.8,3.2c0.8,0.5,1.6,1,1.8,1.1c4,2.4,8.6,3.6,13.2,3.7l0,0c2.8,0.1,5.6-0.5,8.2-1.7c2.4-1.1,4.4-2.9,5.8-5.2
					c1.4-2.3,2.1-5,2.1-7.7c0.1-2.7-0.6-5.3-2.1-7.5C28.9,30.8,27.2,29.2,25.3,28.1z"/>
				<path id="パス_5329" class="st8" d="M161.1,5.2h-0.2c-1,0-1.9,0.6-2.3,1.5l-18.1,44.4c-0.3,0.7-0.2,1.6,0.2,2.2
					c0.5,0.6,1.2,1,2,1h3c1,0,1.9-0.6,2.3-1.5l4.9-12.1h15.9l4.9,12.2c0.4,0.9,1.2,1.5,2.2,1.5h3.4c0.8,0,1.5-0.4,2-1.1
					c0.5-0.7,0.5-1.5,0.2-2.3L163.4,6.7C163,5.7,162.1,5.1,161.1,5.2z M156,33.1l5-12.2l4.9,12.2L156,33.1z"/>
				<path id="パス_5330" class="st8" d="M193.2,51.9V8.8c0-1.3,1.1-2.4,2.4-2.4c0,0,0,0,0,0h3c1.3,0,2.4,1,2.4,2.4c0,0,0,0,0,0
					v37.9h21.5c1.3,0,2.4,1.1,2.4,2.4c0,0,0,0,0,0v2.8c0,1.3-1.1,2.4-2.4,2.4c0,0,0,0,0,0h-26.9C194.3,54.4,193.2,53.3,193.2,51.9
					C193.2,51.9,193.2,51.9,193.2,51.9z"/>
				<path id="長方形_5378" class="st8" d="M237.4,6.3h2.2c1.6,0,2.8,1.3,2.8,2.8v42.3c0,1.6-1.3,2.8-2.8,2.8h-2.2
					c-1.6,0-2.8-1.3-2.8-2.8V9.1C234.6,7.6,235.9,6.3,237.4,6.3z"/>
				<path id="パス_5331" class="st8" d="M280.7,5.9c-13.5,0.1-24.4,11.2-24.2,24.7s11.2,24.4,24.7,24.2
					c13.4-0.1,24.2-11.1,24.2-24.5c0-13.5-10.9-24.5-24.5-24.5C280.9,5.9,280.8,5.9,280.7,5.9z M280.7,47
					c-9.2-0.1-16.5-7.6-16.4-16.8c0.1-9.2,7.6-16.5,16.8-16.4c9.1,0.1,16.4,7.5,16.4,16.6c0,9.2-7.4,16.6-16.6,16.6
					C280.8,47,280.7,47,280.7,47L280.7,47z"/>
				<rect id="長方形_5379" x="322" class="st1" width="98" height="60"/>
				<path id="パス_5332" class="st7" d="M363,28.8v2c0,0.6-0.2,1.2-0.7,1.6c-0.4,0.4-1,0.7-1.6,0.7H346v11.1h17.1
					c1.2,0,2.2,1,2.2,2.2l0,0v2.1c0,1.2-1,2.2-2.2,2.2c0,0,0,0,0,0H341c-1.2,0-2.2-1-2.2-2.2c0,0,0,0,0,0l0,0V12.5
					c0-1.2,1-2.2,2.2-2.2c0,0,0,0,0,0h21.5c0.6,0,1.2,0.2,1.6,0.6c0.4,0.4,0.7,1,0.6,1.6v2.1c0,0.6-0.2,1.2-0.6,1.6
					c-0.4,0.4-1,0.6-1.6,0.6H346v9.8h14.8C362.1,26.6,363.1,27.6,363,28.8C363.1,28.8,363.1,28.8,363,28.8L363,28.8z"/>
				<path id="パス_5333" class="st7" d="M405.2,46.7c0,0.9-0.5,1.6-1.3,2c-3.6,1.5-7.5,2.3-11.4,2.3c-14,0-21.3-9.5-21.3-20.4
					c0-12.7,9.5-20.6,21.3-20.6c3.9,0,7.7,0.9,11,2.7c0.9,0.5,1.4,1.6,1,2.6l-0.7,2c-0.2,0.6-0.7,1.1-1.4,1.3
					c-0.6,0.2-1.3,0.1-1.9-0.2c-2.5-1.4-5.3-2.2-8.1-2.1c-9.1,0-14.2,6.4-14.2,14.1c0,7.1,4.4,14.1,14.7,14.1c3.1,0,6.2-0.7,9-2.1
					c0.7-0.3,1.5-0.3,2.1,0.1c0.6,0.4,1,1.1,1,1.8L405.2,46.7z"/>
			</g>
		</g>
		<path class="st9" d="M381.5,94.5l4.5-20.7c0.9-4.3,3.6-6.2,7.7-6.2c3.5,0,5.1,2.2,5.1,4.6c0,2.8-1.7,4.8-4.6,5.7
			c1.9,0.8,3.2,2.7,3.2,4.8c0,4.9-4.2,7-7.5,7c-1.2,0-2.5-0.2-3.6-0.8l-1.2,5.6L381.5,94.5z M387,85.7c0.8,0.6,1.8,1,2.8,1
			c2.4,0,3.9-1.3,3.9-3.4c0.2-1.9-1.2-3.5-3-3.7c-0.2,0-0.3,0-0.5,0v-2.7c2.7,0,5.1-1.4,5.1-3.7c0.1-1.3-0.8-2.4-2.1-2.5
			c-0.2,0-0.3,0-0.5,0c-1,0-2.6,0.4-3.2,3L387,85.7z"/>
		<path class="st9" d="M419.4,79.5c-0.1,0.3-0.2,0.8-0.3,1.1c-0.4,2-1.2,4-2.2,5.8c0.9,1.1,2,2,3.3,2.6c-0.5,0.6-0.8,1.3-1.1,2
			c-1.3-0.8-2.4-1.8-3.3-3c-1,1.2-2.1,2.2-3.4,3c-0.3-0.7-0.7-1.3-1.2-1.8c-0.3,0.6-0.6,1.3-0.9,1.9c-0.4-0.5-0.8-1-1.4-1.3
			c0,0.6,0,0.8,0.1,1.2h-2.2c0.1-0.7,0.2-1.5,0.1-2.2v-4.4h-1.8c0,1.3-0.2,2.5-0.5,3.8c-0.2,1.1-0.5,2.1-1,3.1
			c-0.5-0.6-1.1-1.1-1.8-1.5c1-1.6,1.4-4.3,1.4-9.6v-4.3c0-0.7,0-1.3-0.1-2h2.2c-0.1,0.7-0.1,1.3-0.1,2v2.6h1.6v-3.2
			c0-0.6,0-1.2-0.1-1.8h2.1c-0.1,0.6-0.1,1.2-0.1,1.8v3.2c0.4,0,0.9,0,1.3-0.1v2c-0.5-0.1-1.1-0.1-1.6-0.1h-3.2v2.2h2.2
			c0.7,0,1.2,0,1.6-0.1c0,0.5-0.1,1-0.1,1.6v5.3c1.3-2.1,1.8-5.3,1.8-12.5c0-1.5,0-2.2-0.1-2.9c0.7,0.1,1.4,0.1,2.1,0.1h4.8
			c0.8,0,1.5,0,2.3-0.1V76c-0.6-0.1-1.5-0.1-2.2-0.1h-4.9v2.6h3.9c0.6,0,1.3,0,1.9-0.1L419.4,79.5z M411.2,89.1
			c1.3-0.7,2.4-1.6,3.3-2.8c-1-1.8-1.7-3.9-1.9-6C412.4,84.5,412,87.1,411.2,89.1z M414.2,80.4c0.2,1.5,0.7,2.9,1.4,4.3
			c0.7-1.3,1.2-2.8,1.4-4.3H414.2z"/>
	</g>
</g>
</svg>
