<?xml version="1.0" encoding="utf-8"?>
<!-- Generator: Adobe Illustrator 26.2.1, SVG Export Plug-In . SVG Version: 6.00 Build 0)  -->
<svg version="1.1" id="レイヤー_1" xmlns="http://www.w3.org/2000/svg" xmlns:xlink="http://www.w3.org/1999/xlink" x="0px"
	 y="0px" viewBox="0 0 15.9 15.7" style="enable-background:new 0 0 15.9 15.7;" xml:space="preserve">
<style type="text/css">
	.st0{clip-path:url(#SVGID_00000158721294440372917930000007370306940304569279_);}
	.st1{fill:#BFBFBF;}
</style>
<g>
	<defs>
		<rect id="SVGID_1_" width="15.9" height="15.7"/>
	</defs>
	<clipPath id="SVGID_00000066510456365411079370000016301286689630322605_">
		<use xlink:href="#SVGID_1_"  style="overflow:visible;"/>
	</clipPath>
	<g id="グループ_6645" style="clip-path:url(#SVGID_00000066510456365411079370000016301286689630322605_);">
		<path id="パス_5935" class="st1" d="M3.7,7.7c0.5,0,0.9-0.4,0.9-0.9S4.2,6,3.7,6S2.9,6.3,2.9,6.8S3.2,7.7,3.7,7.7L3.7,7.7"/>
		<path id="パス_5936" class="st1" d="M6.5,7.7c0.5,0,0.9-0.4,0.9-0.9S7,6,6.5,6S5.7,6.3,5.7,6.8S6.1,7.7,6.5,7.7L6.5,7.7"/>
		<path id="パス_5937" class="st1" d="M9.4,7.7c0.5,0,0.9-0.4,0.9-0.9S9.8,6,9.4,6C8.9,6,8.5,6.3,8.5,6.8S8.9,7.7,9.4,7.7L9.4,7.7
			"/>
		<path id="パス_5938" class="st1" d="M3.7,10.4c0.5,0,0.9-0.4,0.9-0.9S4.2,8.7,3.7,8.7S2.9,9.1,2.9,9.5S3.2,10.4,3.7,10.4
			L3.7,10.4"/>
		<path id="パス_5939" class="st1" d="M6.5,10.4c0.5,0,0.9-0.4,0.9-0.9S7,8.7,6.5,8.7S5.7,9.1,5.7,9.5S6.1,10.4,6.5,10.4L6.5,10.4
			"/>
		<path id="パス_5940" class="st1" d="M9.4,10.4c0.5,0,0.9-0.4,0.9-0.9S9.8,8.7,9.4,8.7c-0.5,0-0.9,0.4-0.9,0.9S8.9,10.4,9.4,10.4
			L9.4,10.4"/>
		<path id="パス_5941" class="st1" d="M12.2,7.7c0.5,0,0.9-0.4,0.9-0.9S12.7,6,12.2,6c-0.5,0-0.9,0.4-0.9,0.9S11.7,7.7,12.2,7.7
			L12.2,7.7"/>
		<path id="パス_5942" class="st1" d="M12.2,10.4c0.5,0,0.9-0.4,0.9-0.9s-0.4-0.9-0.9-0.9c-0.5,0-0.9,0.4-0.9,0.9
			S11.7,10.4,12.2,10.4L12.2,10.4"/>
		<path id="パス_5943" class="st1" d="M3.7,13.1c0.5,0,0.9-0.4,0.9-0.9s-0.4-0.9-0.9-0.9s-0.9,0.4-0.9,0.9S3.2,13.1,3.7,13.1
			L3.7,13.1"/>
		<path id="パス_5944" class="st1" d="M6.5,13.1c0.5,0,0.9-0.4,0.9-0.9S7,11.4,6.5,11.4s-0.9,0.4-0.9,0.9S6.1,13.1,6.5,13.1
			L6.5,13.1"/>
		<path id="パス_5945" class="st1" d="M9.4,13.1c0.5,0,0.9-0.4,0.9-0.9s-0.4-0.9-0.9-0.9c-0.5,0-0.9,0.4-0.9,0.9
			S8.9,13.1,9.4,13.1L9.4,13.1"/>
		<path id="パス_5946" class="st1" d="M12.2,13.1c0.5,0,0.9-0.4,0.9-0.9s-0.4-0.9-0.9-0.9c-0.5,0-0.9,0.4-0.9,0.9
			S11.7,13.1,12.2,13.1L12.2,13.1"/>
		<path id="パス_5947" class="st1" d="M3.7,2.7c0.4,0,0.8-0.3,0.8-0.8V0.8C4.5,0.3,4.1,0,3.7,0S3,0.3,3,0.8v1.1
			C3,2.3,3.3,2.7,3.7,2.7L3.7,2.7"/>
		<path id="パス_5948" class="st1" d="M14.2,1.3h-0.5v0.6c0,0.8-0.7,1.5-1.5,1.5s-1.5-0.7-1.5-1.5V1.3H5.2v0.6
			c0,0.8-0.7,1.5-1.5,1.5S2.2,2.7,2.2,1.9V1.3H1.7C0.8,1.3,0,2,0,2.9v11c0,1,0.8,1.8,1.8,1.8h12.4c1,0,1.7-0.8,1.8-1.8v-11
			C15.9,2,15.1,1.3,14.2,1.3 M14.4,13.9c0,0.1-0.1,0.2-0.2,0.2H1.8c-0.1,0-0.2-0.1-0.2-0.2V4.8h12.9V13.9z"/>
		<path id="パス_5949" class="st1" d="M12.2,2.7c0.4,0,0.8-0.3,0.8-0.8V0.8c0-0.4-0.3-0.8-0.8-0.8s-0.8,0.3-0.8,0.8v1.1
			C11.4,2.3,11.8,2.7,12.2,2.7L12.2,2.7"/>
	</g>
</g>
</svg>
