<svg xmlns="http://www.w3.org/2000/svg" xmlns:xlink="http://www.w3.org/1999/xlink" width="49.996" height="49.063" viewBox="0 0 49.996 49.063">
  <defs>
    <clipPath id="clip-path">
      <rect id="長方形_4703" data-name="長方形 4703" width="49.996" height="49.063" fill="none"/>
    </clipPath>
  </defs>
  <g id="グループ_2808" data-name="グループ 2808" transform="translate(0 0)">
    <g id="グループ_2807" data-name="グループ 2807" transform="translate(0 0)" clip-path="url(#clip-path)">
      <path id="パス_5069" data-name="パス 5069" d="M24.067,13.47A10.313,10.313,0,1,0,34.38,23.782,10.324,10.324,0,0,0,24.067,13.47m0,17.386a1.888,1.888,0,1,1,1.888-1.888,1.888,1.888,0,0,1-1.888,1.888m2.68-6.139a2.551,2.551,0,0,0-.972.472,1.7,1.7,0,0,1-3.39-.181c0-1.6,1.271-2.925,3.4-3.552a3.348,3.348,0,0,0,.7-.288,5.092,5.092,0,0,0-2.423-.52,4.349,4.349,0,0,0-2.682.7,1.7,1.7,0,0,1-3.39-.18c0-2.271,2.554-3.92,6.072-3.92s6.072,1.648,6.072,3.92c0,1.594-1.268,2.921-3.393,3.55" transform="translate(-5.96 -5.837)" fill="#55c4d8"/>
      <path id="パス_5070" data-name="パス 5070" d="M48.3,0H43.108A8.085,8.085,0,0,0,35.68,5.581l-1.217,4.2H24.388a10.344,10.344,0,0,1,2.859,3.4h6.231L28.022,32.012H11.582A4.727,4.727,0,0,1,7.42,28.885L3.5,15.361a1.777,1.777,0,0,1,.167-1.58,1.777,1.777,0,0,1,1.472-.6H8.967a10.337,10.337,0,0,1,2.859-3.4H5.141A5.147,5.147,0,0,0,.95,11.737a5.145,5.145,0,0,0-.714,4.57L4.154,29.831a8.085,8.085,0,0,0,7.428,5.581H26.677a4.721,4.721,0,0,1-3.4,1.75H9.391a5.973,5.973,0,1,0,5.368,3.4H22.44a5.947,5.947,0,1,0,7-3.166,7.22,7.22,0,0,0,1.26-2.415l.231-.8h0l2.145-7.406L38.946,6.527A4.726,4.726,0,0,1,43.108,3.4H48.3a1.7,1.7,0,0,0,0-3.4M11.941,43.113a2.55,2.55,0,1,1-2.55-2.55,2.553,2.553,0,0,1,2.55,2.55m18.417,0a2.55,2.55,0,1,1-2.55-2.55,2.553,2.553,0,0,1,2.55,2.55" transform="translate(0 0)" fill="#ffb900"/>
    </g>
  </g>
</svg>
