<?xml version="1.0" encoding="utf-8"?>
<!-- Generator: Adobe Illustrator 26.0.3, SVG Export Plug-In . SVG Version: 6.00 Build 0)  -->
<svg version="1.1" id="グループ_7883" xmlns="http://www.w3.org/2000/svg" xmlns:xlink="http://www.w3.org/1999/xlink" x="0px"
	 y="0px" viewBox="0 0 14 15" style="enable-background:new 0 0 14 15;" xml:space="preserve">
<style type="text/css">
	.st0{clip-path:url(#SVGID_00000129184727433760867010000009460667537659429822_);}
	.st1{fill:#55C5D9;}
</style>
<g>
	<defs>
		<rect id="SVGID_1_" width="14" height="15"/>
	</defs>
	<clipPath id="SVGID_00000008867255836376901580000009189900068014572426_">
		<use xlink:href="#SVGID_1_"  style="overflow:visible;"/>
	</clipPath>
	
		<g id="グループ_7882" transform="translate(0 0)" style="clip-path:url(#SVGID_00000008867255836376901580000009189900068014572426_);">
		<path id="パス_6832" class="st1" d="M10.9,4.5H7.8V2.9c0.7-0.5,1-1.4,0.5-2.2s-1.4-1-2.2-0.5s-1,1.4-0.5,2.2
			C5.8,2.6,6,2.8,6.2,2.9v1.6H3.1C1.4,4.5,0,5.9,0,7.6v4.3C0,13.6,1.4,15,3.1,15h7.8c1.7,0,3.1-1.4,3.1-3.1V7.6
			C14,5.9,12.6,4.5,10.9,4.5 M12.3,11.9c0,0.8-0.6,1.4-1.4,1.4H3.1c-0.8,0-1.4-0.6-1.4-1.4V7.6c0-0.8,0.6-1.4,1.4-1.4l0,0h7.8
			c0.8,0,1.4,0.6,1.4,1.4V11.9z"/>
		<path id="パス_6833" class="st1" d="M5.2,8.2C4.5,8.2,4,8.7,4,9.4c0,0.6,0.5,1.2,1.2,1.2c0.6,0,1.2-0.5,1.2-1.2
			C6.3,8.7,5.8,8.2,5.2,8.2C5.2,8.2,5.2,8.2,5.2,8.2"/>
		<path id="パス_6834" class="st1" d="M8.8,8.2c-0.6,0-1.2,0.5-1.2,1.2c0,0.6,0.5,1.2,1.2,1.2c0.6,0,1.2-0.5,1.2-1.2
			C10,8.7,9.5,8.2,8.8,8.2"/>
	</g>
</g>
</svg>
