<svg xmlns="http://www.w3.org/2000/svg" width="24" height="24" data-name="Chevron right circle" viewBox="0 0 24 24">
    <path fill="none" d="M0,0H24V24H0Z" data-name="Path 3678" />
    <path fill="#525863" d="M-525.188-247.612a9.6,9.6,0,0,1,0-13.577,9.6,9.6,0,0,1,13.576,0,9.6,9.6,0,0,1,0,13.577A9.569,9.569,0,0,1-518.4-244.8,9.569,9.569,0,0,1-525.188-247.612Zm1.272-12.3a7.809,7.809,0,0,0,0,11.03,7.809,7.809,0,0,0,11.031,0,7.808,7.808,0,0,0,0-11.03A7.776,7.776,0,0,0-518.4-262.2,7.776,7.776,0,0,0-523.916-259.915Zm3.289,9.121a1.2,1.2,0,0,1,0-1.7l1.909-1.909-1.909-1.909a1.2,1.2,0,0,1,0-1.7,1.2,1.2,0,0,1,1.7,0l2.758,2.758a1.2,1.2,0,0,1,0,1.7l-2.758,2.758a1.2,1.2,0,0,1-.848.351A1.194,1.194,0,0,1-520.627-250.794Z" data-name="Path 3564" transform="translate(530.4 266.4)" />
</svg>