<?xml version="1.0" encoding="utf-8"?>
<!-- Generator: Adobe Illustrator 26.0.3, SVG Export Plug-In . SVG Version: 6.00 Build 0)  -->
<svg version="1.1" id="レイヤー_1" xmlns="http://www.w3.org/2000/svg" xmlns:xlink="http://www.w3.org/1999/xlink" x="0px"
	 y="0px" viewBox="0 0 18 18" style="enable-background:new 0 0 18 18;" xml:space="preserve">
<style type="text/css">
	.st0{fill:#55C5D9;}
	.st1{fill:none;}
</style>
<g id="グループ_8622" transform="translate(-24 -170)">
	<g id="グループ_8604" transform="translate(24.346 170.1)">
		<path id="パス_7950" class="st0" d="M7.4,16.1c-0.1-1.5-1.1-2.9-2.5-3.4c1.4-0.6,2.1-2.3,1.5-3.7S4,6.9,2.6,7.5
			s-2.1,2.3-1.5,3.7c0.3,0.7,0.8,1.2,1.5,1.5c-1.4,0.5-2.4,1.9-2.5,3.4c0,0.1,0,0.2,0,0.3c0,0,0,0,0,0c0,0.7,0.6,1.3,1.3,1.3h4.8
			c0.7,0,1.3-0.6,1.3-1.3c0,0,0,0,0,0C7.4,16.3,7.4,16.2,7.4,16.1"/>
		<path id="パス_7951" class="st0" d="M11.6,6.8c-0.4-0.7-1.1-1.2-1.8-1.4c1.4-0.6,2.1-2.3,1.5-3.7S9-0.4,7.5,0.2S5.4,2.5,6,3.9
			c0.3,0.7,0.8,1.2,1.5,1.5C6.8,5.7,6.1,6.2,5.7,6.8c1.1,0.7,1.9,1.9,1.9,3.3c0,0.1,0,0.2,0,0.4h2.2c0-0.1,0-0.2,0-0.4
			C9.7,8.8,10.4,7.5,11.6,6.8"/>
		<path id="パス_7952" class="st0" d="M17.3,16.4c0-0.1,0-0.2,0-0.3c-0.1-1.5-1.1-2.9-2.5-3.4c1.4-0.6,2.1-2.3,1.5-3.7
			c-0.6-1.4-2.3-2.1-3.7-1.5s-2.1,2.3-1.5,3.7c0.3,0.7,0.8,1.2,1.5,1.5c-1.4,0.5-2.4,1.9-2.5,3.4c0,0.1,0,0.2,0,0.3c0,0,0,0,0,0
			c0,0.7,0.6,1.3,1.3,1.3H16C16.7,17.8,17.3,17.2,17.3,16.4C17.3,16.5,17.3,16.4,17.3,16.4"/>
	</g>
	<rect id="長方形_9062" x="24" y="170" class="st1" width="18" height="18"/>
</g>
</svg>
