<?xml version="1.0" encoding="utf-8"?>
<!-- Generator: Adobe Illustrator 26.0.3, SVG Export Plug-In . SVG Version: 6.00 Build 0)  -->
<svg version="1.1" id="レイヤー_1" xmlns="http://www.w3.org/2000/svg" xmlns:xlink="http://www.w3.org/1999/xlink" x="0px"
	 y="0px" viewBox="0 0 18 18" style="enable-background:new 0 0 18 18;" xml:space="preserve">
<style type="text/css">
	.st0{clip-path:url(#SVGID_00000132787445079482232750000005212907921076535183_);}
	.st1{fill:#55C5D9;}
	.st2{fill:none;}
</style>
<g id="グループ_8618" transform="translate(-24 -11)">
	<g id="グループ_8616" transform="translate(24.1 11.5)">
		<g>
			<defs>
				<rect id="SVGID_1_" x="0" width="17.8" height="16.9"/>
			</defs>
			<clipPath id="SVGID_00000021838173235219078880000004952573769813009572_">
				<use xlink:href="#SVGID_1_"  style="overflow:visible;"/>
			</clipPath>
			
				<g id="グループ_8615" transform="translate(0 0)" style="clip-path:url(#SVGID_00000021838173235219078880000004952573769813009572_);">
				<path id="パス_7984" class="st1" d="M17.6,7.1l-2.4-2.1V1.4c0-0.4-0.3-0.8-0.8-0.8c0,0,0,0,0,0h-1.7c-0.4,0-0.8,0.3-0.8,0.8
					v0.9L9.4,0.2c-0.3-0.2-0.7-0.2-1,0L0.3,7.1c-0.3,0.3-0.4,0.8-0.1,1.1C0.5,8.5,1,8.6,1.3,8.3l0.6-0.5v8.3c0,0.4,0.3,0.8,0.8,0.8
					h12.4c0.4,0,0.8-0.3,0.8-0.8V7.8l0.6,0.5c0.3,0.3,0.8,0.2,1.1-0.1C17.9,7.9,17.9,7.4,17.6,7.1L17.6,7.1 M14.3,15.3h-3.3v-4.1
					c0-0.4-0.3-0.8-0.8-0.8H7.5c-0.4,0-0.8,0.3-0.8,0.8v4.1H3.5V6.4l5.4-4.6l5.4,4.6L14.3,15.3z"/>
			</g>
		</g>
	</g>
	<rect id="長方形_9058" x="24" y="11" class="st2" width="18" height="18"/>
</g>
</svg>
