<?xml version="1.0" encoding="utf-8"?>
<!-- Generator: Adobe Illustrator 26.0.3, SVG Export Plug-In . SVG Version: 6.00 Build 0)  -->
<svg version="1.1" id="レイヤー_1" xmlns="http://www.w3.org/2000/svg" xmlns:xlink="http://www.w3.org/1999/xlink" x="0px"
	 y="0px" viewBox="0 0 15 15" style="enable-background:new 0 0 15 15;" xml:space="preserve">
<style type="text/css">
	.st0{clip-path:url(#SVGID_00000159448809764443852190000010267214716990178728_);}
	.st1{fill:#FFBA00;}
</style>
<g id="グループ_8045" transform="translate(0 0)">
	<g>
		<defs>
			<rect id="SVGID_1_" width="15" height="15"/>
		</defs>
		<clipPath id="SVGID_00000023269307740715628440000002237002696131401895_">
			<use xlink:href="#SVGID_1_"  style="overflow:visible;"/>
		</clipPath>
		
			<g id="グループ_2784" transform="translate(0 0)" style="clip-path:url(#SVGID_00000023269307740715628440000002237002696131401895_);">
			<path id="パス_5063" class="st1" d="M7.5,0C3.4,0,0,3.4,0,7.5S3.4,15,7.5,15S15,11.7,15,7.5C15,3.4,11.7,0,7.5,0 M7.5,13.2
				c-3.2,0-5.7-2.6-5.7-5.7c0-3.2,2.6-5.7,5.7-5.7c3.2,0,5.7,2.6,5.7,5.7C13.2,10.7,10.7,13.2,7.5,13.2"/>
			<path id="パス_5064" class="st1" d="M6.6,6c0-0.7-0.6-1.2-1.2-1.2S4.1,5.3,4.1,6s0.6,1.2,1.2,1.2h0C6,7.3,6.6,6.7,6.6,6"/>
			<path id="パス_5065" class="st1" d="M9.7,4.8C9,4.8,8.4,5.3,8.4,6c0,0.7,0.6,1.2,1.2,1.2c0.7,0,1.2-0.6,1.2-1.2
				S10.4,4.8,9.7,4.8L9.7,4.8"/>
			<path id="パス_5066" class="st1" d="M9,8.8C8.2,9.7,7,9.7,6.2,9c0,0-0.1-0.1-0.1-0.1C5.7,8.5,5.1,8.5,4.8,8.8
				c-0.4,0.3-0.4,0.9-0.1,1.3c1.4,1.5,3.8,1.6,5.4,0.2c0.1-0.1,0.2-0.1,0.2-0.2c0.3-0.4,0.3-0.9-0.1-1.3C9.9,8.5,9.3,8.5,9,8.8
				L9,8.8"/>
		</g>
	</g>
</g>
</svg>
