<svg xmlns="http://www.w3.org/2000/svg" xmlns:xlink="http://www.w3.org/1999/xlink" width="54.338" height="21.522" viewBox="0 0 54.338 21.522">
  <defs>
    <clipPath id="clip-path">
      <rect id="長方形_5536" data-name="長方形 5536" width="19.436" height="18.763" fill="none"/>
    </clipPath>
  </defs>
  <g id="グループ_7621" data-name="グループ 7621" transform="translate(-856.662 -756.767)">
    <path id="パス_4021" data-name="パス 4021" d="M2.423,15.14v3.6H5.473v1.233H2.423v5.057H1V13.844H5.71v1.3Z" transform="translate(856.32 752.04)" fill="#ffba00"/>
    <path id="パス_4022" data-name="パス 4022" d="M2.081,25.352H.659A.658.658,0,0,1,0,24.693V13.5a.658.658,0,0,1,.659-.659h4.71a.658.658,0,0,1,.659.659v1.3a.658.658,0,0,1-.659.659H2.74v2.287H5.132a.658.658,0,0,1,.659.659v1.233a.658.658,0,0,1-.659.659H2.74v4.4a.658.658,0,0,1-.659.659m-.764-1.317h.105v-4.4a.659.659,0,0,1,.427-.616.661.661,0,0,1-.427-.617V14.8a.66.66,0,0,1,.492-.638h-.6Z" transform="translate(856.662 752.382)" fill="#ffba00"/>
    <path id="パス_4023" data-name="パス 4023" d="M15.56,25.035V15.472l-1.992,1.517L12.9,15.883l2.734-2.039H16.95V25.035Z" transform="translate(852.256 752.04)" fill="#ffba00"/>
    <path id="パス_4024" data-name="パス 4024" d="M16.609,25.352h-1.39a.658.658,0,0,1-.659-.659V16.46l-.935.712a.668.668,0,0,1-.523.123.66.66,0,0,1-.441-.308L12,15.88a.658.658,0,0,1,.171-.867L14.9,12.974a.657.657,0,0,1,.394-.13h1.312a.658.658,0,0,1,.659.659V24.693a.658.658,0,0,1-.659.659m-.732-1.317h.073V14.161h-.435l-.439.327a.658.658,0,0,1,.8.643Z" transform="translate(852.598 752.382)" fill="#ffba00"/>
    <path id="パス_4025" data-name="パス 4025" d="M36.069,15.647a6.235,6.235,0,0,1-.4,2.279,4.955,4.955,0,0,1-1.067,1.7,4.588,4.588,0,0,1-1.594,1.054,5.272,5.272,0,0,1-1.976.368,6.349,6.349,0,0,1-2.7-.592A5.466,5.466,0,0,1,26.3,18.888l1.4-1.713a4.247,4.247,0,0,0,1.515,1.238,4.1,4.1,0,0,0,1.831.448,2.6,2.6,0,0,0,1.949-.79,3.17,3.17,0,0,0,.764-2.293,3.086,3.086,0,0,0-.237-1.251,3.31,3.31,0,0,0-.659-.975,5.756,5.756,0,0,0-.962-.79,11.469,11.469,0,0,0-1.172-.671,10.852,10.852,0,0,1-1.436-.83,6.348,6.348,0,0,1-1.2-1.067,4.539,4.539,0,0,1-.83-1.436,5.718,5.718,0,0,1-.3-1.962,6,6,0,0,1,.421-2.345,4.81,4.81,0,0,1,1.12-1.66,4.46,4.46,0,0,1,1.594-.974A5.422,5.422,0,0,1,31.907,1.5a6.179,6.179,0,0,1,2.41.447A4.423,4.423,0,0,1,36.1,3.292L34.673,4.978a3.2,3.2,0,0,0-2.687-1.317A2.965,2.965,0,0,0,31,3.832a2.423,2.423,0,0,0-.882.553,2.794,2.794,0,0,0-.632.962,3.687,3.687,0,0,0-.237,1.4,3.053,3.053,0,0,0,.224,1.226,3.23,3.23,0,0,0,.606.921,4.807,4.807,0,0,0,.882.738,10.349,10.349,0,0,0,1.08.62,15.082,15.082,0,0,1,1.449.83,6.625,6.625,0,0,1,1.291,1.093,5.044,5.044,0,0,1,.935,1.488,5.163,5.163,0,0,1,.356,1.99" transform="translate(847.684 756.254)" fill="#ffba00"/>
    <path id="パス_4026" data-name="パス 4026" d="M30.526,21.522a7.344,7.344,0,0,1-3.116-.684,6.455,6.455,0,0,1-2.4-1.853.989.989,0,0,1,.012-1.234l1.4-1.713a1.006,1.006,0,0,1,.781-.363.986.986,0,0,1,.769.386,3.233,3.233,0,0,0,1.168.954,3.1,3.1,0,0,0,1.394.346,1.615,1.615,0,0,0,1.24-.489,2.264,2.264,0,0,0,.485-1.606,2.137,2.137,0,0,0-.153-.853,2.3,2.3,0,0,0-.464-.686,4.77,4.77,0,0,0-.8-.653,10.511,10.511,0,0,0-1.07-.612,11.923,11.923,0,0,1-1.554-.9,7.321,7.321,0,0,1-1.384-1.233,5.525,5.525,0,0,1-1.012-1.746,6.712,6.712,0,0,1-.363-2.3,7.02,7.02,0,0,1,.5-2.728A5.823,5.823,0,0,1,27.305,1.56,5.461,5.461,0,0,1,29.249.372,6.426,6.426,0,0,1,31.394,0a7.17,7.17,0,0,1,2.793.525,5.407,5.407,0,0,1,2.17,1.64.987.987,0,0,1-.019,1.251L34.916,5.1a1.033,1.033,0,0,1-.78.351.991.991,0,0,1-.762-.39,2.216,2.216,0,0,0-1.9-.927,1.971,1.971,0,0,0-.661.116,1.425,1.425,0,0,0-.524.332,1.817,1.817,0,0,0-.4.625,2.741,2.741,0,0,0-.163,1.021,2.109,2.109,0,0,0,.142.83,2.254,2.254,0,0,0,.422.641,3.879,3.879,0,0,0,.7.587,9.4,9.4,0,0,0,.979.561,16.032,16.032,0,0,1,1.544.884,7.682,7.682,0,0,1,1.482,1.255,6.072,6.072,0,0,1,1.119,1.777,6.158,6.158,0,0,1,.431,2.368,7.258,7.258,0,0,1-.462,2.637A5.948,5.948,0,0,1,34.8,19.8a5.573,5.573,0,0,1-1.932,1.279,6.278,6.278,0,0,1-2.343.439m-3.426-3.2a4.955,4.955,0,0,0,1.141.722,5.391,5.391,0,0,0,2.285.5,4.32,4.32,0,0,0,1.61-.3,3.589,3.589,0,0,0,1.255-.828,4.015,4.015,0,0,0,.852-1.367,5.284,5.284,0,0,0,.327-1.92,4.211,4.211,0,0,0-.28-1.61,4.086,4.086,0,0,0-.752-1.2,5.643,5.643,0,0,0-1.1-.932,13.985,13.985,0,0,0-1.353-.775A11.5,11.5,0,0,1,29.9,9.939a5.8,5.8,0,0,1-1.061-.889,4.207,4.207,0,0,1-.79-1.2,4.044,4.044,0,0,1-.306-1.619,4.691,4.691,0,0,1,.311-1.771,3.782,3.782,0,0,1,.86-1.3,3.413,3.413,0,0,1,1.241-.775,3.975,3.975,0,0,1,1.317-.227,4.246,4.246,0,0,1,2.622.85l.151-.18a3.544,3.544,0,0,0-.825-.484,5.234,5.234,0,0,0-2.028-.37,4.471,4.471,0,0,0-1.488.259A3.507,3.507,0,0,0,28.661,3a3.846,3.846,0,0,0-.887,1.324,5.075,5.075,0,0,0-.344,1.961,4.776,4.776,0,0,0,.243,1.623,3.556,3.556,0,0,0,.647,1.127,5.37,5.37,0,0,0,1.013.9,9.929,9.929,0,0,0,1.3.754,12.741,12.741,0,0,1,1.286.735,6.782,6.782,0,0,1,1.127.929,4.3,4.3,0,0,1,.854,1.266,4.079,4.079,0,0,1,.321,1.648,4.126,4.126,0,0,1-1.041,2.979,3.562,3.562,0,0,1-2.66,1.092,5.092,5.092,0,0,1-2.268-.551,5.305,5.305,0,0,1-1.008-.644Z" transform="translate(848.197 756.767)" fill="#ffba00"/>
    <g id="グループ_6291" data-name="グループ 6291" transform="translate(891.564 759.524)">
      <g id="グループ_6288" data-name="グループ 6288" transform="translate(0 0)">
        <path id="パス_5499" data-name="パス 5499" d="M12.079,0H2.1a1.748,1.748,0,0,0,0,3.5h9.982a3.861,3.861,0,0,1,0,7.721H7.514V8.569A1.4,1.4,0,0,0,5.161,7.546l-4.717,4.4a1.4,1.4,0,0,0,0,2.046l4.717,4.4a1.4,1.4,0,0,0,2.353-1.023V14.715h4.564A7.358,7.358,0,0,0,12.079,0" transform="translate(0 0)" fill="#55c3d7"/>
      </g>
    </g>
  </g>
</svg>
