<?xml version="1.0" encoding="utf-8"?>
<!-- Generator: Adobe Illustrator 26.0.3, SVG Export Plug-In . SVG Version: 6.00 Build 0)  -->
<svg version="1.1" id="レイヤー_1" xmlns="http://www.w3.org/2000/svg" xmlns:xlink="http://www.w3.org/1999/xlink" x="0px"
	 y="0px" viewBox="0 0 65 21.2" style="enable-background:new 0 0 65 21.2;" xml:space="preserve">
<style type="text/css">
	.st0{clip-path:url(#SVGID_00000093889923660762472880000002809081182900066980_);}
	.st1{fill:#FFBA00;}
	.st2{fill:#55C5D9;}
	.st3{clip-path:url(#SVGID_00000054975976852802065770000006724336282199238798_);}
</style>
<g id="グループ_8144" transform="translate(-854.695 -654.405)">
	<g id="グループ_6200" transform="translate(854.695 654.405)">
		<g>
			<defs>
				<rect id="SVGID_1_" width="65" height="21.2"/>
			</defs>
			<clipPath id="SVGID_00000125582748726099039710000008866349716096568504_">
				<use xlink:href="#SVGID_1_"  style="overflow:visible;"/>
			</clipPath>
			
				<g id="グループ_1770" transform="translate(0 0)" style="clip-path:url(#SVGID_00000125582748726099039710000008866349716096568504_);">
				<path id="パス_3961" class="st1" d="M2.4,10.3v3.6h3v1.2h-3v5.1H1V9h4.7v1.3L2.4,10.3z"/>
				<path id="パス_3962" class="st1" d="M2.4,21.2H1c-0.5,0-1-0.4-1-1c0,0,0,0,0,0V9c0-0.5,0.4-1,1-1h4.7c0.5,0,1,0.4,1,1v1.3
					c0,0.5-0.4,1-1,1H3.4v1.6h2.1c0.5,0,1,0.4,1,1l0,0v1.2c0,0.5-0.4,1-1,1c0,0,0,0,0,0H3.4v4.1C3.4,20.7,3,21.2,2.4,21.2
					C2.4,21.2,2.4,21.2,2.4,21.2"/>
				<path id="パス_3963" class="st1" d="M19.9,6c0,0.6-0.1,1.1-0.2,1.7c-0.2,0.5-0.4,1-0.6,1.5c-0.3,0.5-0.6,1-0.9,1.5
					c-0.3,0.5-0.7,1-1.1,1.6l-4.1,5.6h6.7V20h-9.3v-2.2l5.2-7.1c0.6-0.7,1-1.5,1.4-2.3c0.3-0.7,0.5-1.4,0.5-2.2
					c0-0.8-0.2-1.5-0.6-2.2c-0.4-0.6-1.1-1-1.8-0.9c-0.7,0-1.3,0.2-1.7,0.7c-0.5,0.6-0.8,1.3-0.9,2.1l-2.2-0.2
					c0.1-1.3,0.7-2.5,1.7-3.5C12.8,1.4,14,0.9,15.2,1c0.7,0,1.4,0.1,2,0.4c0.6,0.2,1,0.6,1.4,1.1c0.4,0.5,0.7,1,0.9,1.6
					C19.8,4.7,19.9,5.3,19.9,6"/>
				<path id="パス_3964" class="st1" d="M19.6,21h-9.3c-0.5,0-1-0.4-1-1l0,0v-2.2c0-0.2,0.1-0.4,0.2-0.6l5.2-7.1
					c0.5-0.7,1-1.4,1.3-2.2c0.3-0.6,0.4-1.2,0.4-1.8c0-0.6-0.1-1.2-0.4-1.7c-0.2-0.3-0.6-0.5-1-0.5c-0.4,0-0.8,0.1-1,0.4
					c-0.4,0.4-0.6,1-0.6,1.6c-0.1,0.5-0.6,0.9-1.1,0.8l-2.2-0.2C9.6,6.5,9.2,6.1,9.2,5.5c0,0,0,0,0-0.1c0.2-1.5,0.9-3,2-4
					c1.1-1,2.5-1.5,4-1.4c0.8,0,1.7,0.2,2.4,0.5c0.7,0.3,1.3,0.8,1.8,1.3c0.5,0.6,0.8,1.2,1.1,1.9c0.2,0.7,0.4,1.5,0.4,2.3
					c0,0.7-0.1,1.3-0.3,1.9c-0.2,0.6-0.4,1.2-0.7,1.7c-0.3,0.6-0.6,1.1-1,1.6c-0.4,0.5-0.7,1-1.1,1.6l-3,4h4.8c0.5,0,1,0.4,1,1v0V20
					C20.6,20.5,20.2,21,19.6,21L19.6,21 M11.3,19h7.4v-0.1h-5.7c-0.5,0-1-0.4-1-1c0-0.2,0.1-0.4,0.2-0.6l4.1-5.6
					c0.4-0.5,0.8-1.1,1.1-1.5c0.3-0.4,0.6-0.9,0.8-1.4c0.2-0.4,0.4-0.9,0.5-1.4C18.8,7,18.9,6.5,18.9,6c0-0.6-0.1-1.1-0.3-1.7
					c-0.1-0.5-0.4-0.9-0.7-1.2c-0.3-0.3-0.7-0.6-1.1-0.8c-0.5-0.2-1-0.3-1.6-0.3c-1,0-1.9,0.3-2.7,0.9c-0.5,0.5-0.9,1.1-1.1,1.9
					l0.3,0c0.2-0.6,0.5-1.2,0.9-1.7c0.6-0.7,1.5-1.1,2.5-1c1.1,0,2.1,0.5,2.6,1.4c0.5,0.8,0.8,1.8,0.7,2.7c0,0.9-0.2,1.8-0.6,2.6
					c-0.4,0.9-0.9,1.7-1.5,2.5l-5,6.8L11.3,19z"/>
				<path id="パス_3965" class="st2" d="M36.5,10L30,6.3v7.5L36.5,10z"/>
				<path id="パス_3966" class="st2" d="M30,14.8c-0.5,0-1-0.4-1-1V6.3c0-0.5,0.4-1,1-1c0.2,0,0.3,0,0.5,0.1l6.5,3.8
					c0.5,0.3,0.6,0.9,0.4,1.3c-0.1,0.2-0.2,0.3-0.4,0.4l-6.5,3.8C30.3,14.7,30.1,14.8,30,14.8 M30.9,8v4.1l3.5-2L30.9,8z"/>
			</g>
		</g>
	</g>
	<g id="グループ_8140" transform="translate(899.186 654.686)">
		<g>
			<defs>
				<rect id="SVGID_00000045583878127340838410000003121880705006192812_" x="0" y="0" width="13.9" height="20.6"/>
			</defs>
			<clipPath id="SVGID_00000069397535832833402020000003132453212727345811_">
				<use xlink:href="#SVGID_00000045583878127340838410000003121880705006192812_"  style="overflow:visible;"/>
			</clipPath>
			
				<g id="グループ_8139" transform="translate(0 0)" style="clip-path:url(#SVGID_00000069397535832833402020000003132453212727345811_);">
				<path id="パス_6936" class="st1" d="M8.6,16.4H4.3V1c0-0.5-0.4-1-1-1c0,0,0,0,0,0H1C0.4,0,0,0.4,0,1v18.7c0,0.5,0.4,1,1,1
					c0,0,0,0,0,0h7.6c0.5,0,1-0.4,1-1l0,0v-2.2C9.6,16.9,9.2,16.4,8.6,16.4L8.6,16.4"/>
				<path id="パス_6937" class="st1" d="M12.7,0.4C12.5,0.1,12.2,0,11.9,0H10C9.5,0,9.1,0.3,9,0.8L7.8,7.2
					C7.7,7.7,8.1,8.2,8.6,8.3c0.1,0,0.1,0,0.2,0h1.7c0.5,0,0.9-0.3,1-0.8l1.4-6.4C13,0.9,12.9,0.6,12.7,0.4"/>
			</g>
		</g>
	</g>
</g>
</svg>
