<svg xmlns="http://www.w3.org/2000/svg" width="40" height="40" viewBox="0 0 40 40">
  <g id="グループ_2087" data-name="グループ 2087" transform="translate(-700 -275.172)">
    <g id="楕円形_50" data-name="楕円形 50" transform="translate(702 277.172)" fill="#fff" stroke="#a5d559" stroke-width="2">
      <circle cx="18" cy="18" r="18" stroke="none"/>
      <circle cx="18" cy="18" r="19" fill="none"/>
    </g>
    <path id="パス_4760" data-name="パス 4760" d="M31.776,38.213a2.419,2.419,0,1,1-2.419-2.419,2.419,2.419,0,0,1,2.419,2.419" transform="translate(683.904 253.127)" fill="#4d4d4d"/>
    <path id="パス_4761" data-name="パス 4761" d="M70.368,38.526a4.651,4.651,0,0,0-8.75,0,1.3,1.3,0,0,0,.854,1.623,1.3,1.3,0,0,0,1.621-.854,2.068,2.068,0,0,1,3.8,0,1.29,1.29,0,0,0,1.238.912,1.31,1.31,0,0,0,.385-.059,1.3,1.3,0,0,0,.853-1.623" transform="translate(660.311 253.359)" fill="#4d4d4d"/>
    <path id="パス_4762" data-name="パス 4762" d="M47.3,66.723a1.3,1.3,0,0,0-1.622.853,4.985,4.985,0,0,1-9.252,0,1.3,1.3,0,1,0-2.476.77,7.569,7.569,0,0,0,14.2,0,1.3,1.3,0,0,0-.854-1.623" transform="translate(678.706 232.238)" fill="#ec6b44"/>
  </g>
</svg>
