<svg id="グループ_6202" data-name="グループ 6202" xmlns="http://www.w3.org/2000/svg" xmlns:xlink="http://www.w3.org/1999/xlink" width="41.404" height="20.627" viewBox="0 0 41.404 20.627">
  <defs>
    <clipPath id="clip-path">
      <rect id="長方形_3353" data-name="長方形 3353" width="41.404" height="20.627" fill="none"/>
    </clipPath>
  </defs>
  <g id="グループ_1782" data-name="グループ 1782" transform="translate(0 0)">
    <path id="パス_4005" data-name="パス 4005" d="M9.139,20.151,5.978,11.827H3.818v8.324H1.5V1.5H6.333a6.652,6.652,0,0,1,1.941.277,4.254,4.254,0,0,1,1.6.882A4.156,4.156,0,0,1,10.956,4.24a6.238,6.238,0,0,1,.4,2.345,6.012,6.012,0,0,1-.294,1.976A4.893,4.893,0,0,1,10.3,10a3.937,3.937,0,0,1-1.024.935,3.31,3.31,0,0,1-1.083.448l3.5,8.772ZM8.981,6.676a3.963,3.963,0,0,0-.263-1.56,2.729,2.729,0,0,0-.685-.978,2.373,2.373,0,0,0-.975-.516,4.335,4.335,0,0,0-1.106-.146H3.818V9.983H6a2.842,2.842,0,0,0,2.161-.859,3.417,3.417,0,0,0,.817-2.447" transform="translate(-0.512 -0.512)" fill="#ffba00"/>
    <path id="パス_4006" data-name="パス 4006" d="M11.182,20.627H8.626A.985.985,0,0,1,7.7,19.99L4.784,12.3H4.293v7.336a.988.988,0,0,1-.988.988H.987A.988.988,0,0,1,0,19.639V.988A.988.988,0,0,1,.987,0H5.821A7.688,7.688,0,0,1,8.049.319a5.267,5.267,0,0,1,1.966,1.088A5.161,5.161,0,0,1,11.36,3.355a7.248,7.248,0,0,1,.468,2.717,7.021,7.021,0,0,1-.348,2.3,5.878,5.878,0,0,1-.917,1.722,4.937,4.937,0,0,1-1.283,1.166c-.1.063-.205.122-.308.176L12.1,19.273a.987.987,0,0,1-.917,1.354M9.308,18.651h.416L6.761,11.233A.987.987,0,0,1,6.81,10.4a1.056,1.056,0,0,1,.114-.166,4.082,4.082,0,0,1-1,.211.989.989,0,0,1,.466.525Zm-7.333,0h.342V11.315a.989.989,0,0,1,.633-.923.987.987,0,0,1-.633-.922V2.964a.988.988,0,0,1,.988-.988H1.975ZM5.439,1.976A5.3,5.3,0,0,1,6.8,2.155a3.355,3.355,0,0,1,1.376.728,3.7,3.7,0,0,1,.938,1.328,4.853,4.853,0,0,1,.346,1.953A4.379,4.379,0,0,1,8.369,9.292a3.76,3.76,0,0,1-.639.538,2.7,2.7,0,0,0,.515-.252,2.985,2.985,0,0,0,.766-.705,3.916,3.916,0,0,0,.6-1.149,5.08,5.08,0,0,0,.238-1.651A5.311,5.311,0,0,0,9.529,4.1a3.2,3.2,0,0,0-.823-1.211A3.231,3.231,0,0,0,7.475,2.21a5.678,5.678,0,0,0-1.654-.234ZM4.293,8.483h1.2a1.86,1.86,0,0,0,1.445-.552,2.5,2.5,0,0,0,.545-1.767A3.028,3.028,0,0,0,7.3,5a1.763,1.763,0,0,0-.431-.629,1.383,1.383,0,0,0-.574-.3,3.363,3.363,0,0,0-.855-.113H4.293Z" transform="translate(0 0)" fill="#ffba00"/>
    <path id="パス_4007" data-name="パス 4007" d="M28.242,17.231a1.646,1.646,0,0,1-1.164-2.811l5.658-5.658a1.646,1.646,0,1,1,2.328,2.328l-5.657,5.659a1.643,1.643,0,0,1-1.164.482" transform="translate(-9.08 -2.827)" fill="#55c5d9"/>
    <path id="パス_4008" data-name="パス 4008" d="M42.491,17.231a1.649,1.649,0,0,1-1.164-.482L35.669,11.09A1.646,1.646,0,1,1,38,8.762l4.494,4.494,4.493-4.494a1.646,1.646,0,1,1,2.328,2.328l-5.657,5.659a1.649,1.649,0,0,1-1.164.482" transform="translate(-12.013 -2.827)" fill="#55c5d9"/>
    <path id="パス_4009" data-name="パス 4009" d="M57.429,4.779l-6.637.232,6.4,6.4Z" transform="translate(-17.342 -1.632)" fill="#55c5d9"/>
    <path id="パス_4010" data-name="パス 4010" d="M56.514,12.05a1.313,1.313,0,0,1-.931-.386l-6.4-6.4a1.317,1.317,0,0,1,.885-2.248L56.7,2.78a1.284,1.284,0,0,1,.977.385,1.312,1.312,0,0,1,.385.977l-.232,6.637a1.318,1.318,0,0,1-1.316,1.271M53.183,5.539,55.3,7.659l.076-2.2Z" transform="translate(-16.659 -0.948)" fill="#55c5d9"/>
  </g>
</svg>
