<?xml version="1.0" encoding="utf-8"?>
<!-- Generator: Adobe Illustrator 26.0.3, SVG Export Plug-In . SVG Version: 6.00 Build 0)  -->
<svg version="1.1" id="レイヤー_1" xmlns="http://www.w3.org/2000/svg" xmlns:xlink="http://www.w3.org/1999/xlink" x="0px"
	 y="0px" viewBox="0 0 47.3 21.5" style="enable-background:new 0 0 47.3 21.5;" xml:space="preserve">
<style type="text/css">
	.st0{fill:#FFBA00;}
	.st1{clip-path:url(#SVGID_00000148646683526229153100000006656976794429820057_);}
	.st2{fill:#55C3D7;}
	.st3{clip-path:url(#SVGID_00000050621488134919294410000002238515245463314854_);}
</style>
<g id="グループ_8147" transform="translate(-267.09 -879.238)">
	<g id="グループ_7622" transform="translate(0 47.473)">
		<path id="パス_4033" class="st0" d="M287,846.9c0,0.8-0.1,1.6-0.4,2.3c-0.2,0.6-0.6,1.2-1.1,1.7c-0.5,0.5-1,0.8-1.6,1.1
			c-0.6,0.2-1.3,0.4-2,0.4c-0.9,0-1.9-0.2-2.7-0.6c-0.8-0.4-1.5-0.9-2-1.6l1.4-1.7c0.4,0.5,0.9,0.9,1.5,1.2c0.6,0.3,1.2,0.4,1.8,0.4
			c0.7,0,1.4-0.3,1.9-0.8c0.5-0.6,0.8-1.5,0.8-2.3c0-0.4-0.1-0.9-0.2-1.3c-0.2-0.4-0.4-0.7-0.7-1c-0.3-0.3-0.6-0.6-1-0.8
			c-0.4-0.2-0.8-0.5-1.2-0.7c-0.5-0.2-1-0.5-1.4-0.8c-0.4-0.3-0.8-0.7-1.2-1.1c-0.4-0.4-0.6-0.9-0.8-1.4c-0.2-0.6-0.3-1.3-0.3-2
			c0-0.8,0.1-1.6,0.4-2.3c0.3-0.6,0.6-1.2,1.1-1.7c0.5-0.4,1-0.8,1.6-1c0.6-0.2,1.2-0.3,1.8-0.3c0.8,0,1.6,0.1,2.4,0.4
			c0.7,0.3,1.3,0.8,1.8,1.3l-1.4,1.7c-0.6-0.9-1.6-1.3-2.7-1.3c-0.3,0-0.7,0.1-1,0.2c-0.3,0.1-0.6,0.3-0.9,0.6
			c-0.3,0.3-0.5,0.6-0.6,1c-0.2,0.4-0.2,0.9-0.2,1.4c0,0.4,0.1,0.8,0.2,1.2c0.1,0.3,0.4,0.7,0.6,0.9c0.3,0.3,0.6,0.5,0.9,0.7
			c0.3,0.2,0.7,0.4,1.1,0.6c0.5,0.2,1,0.5,1.4,0.8c0.5,0.3,0.9,0.7,1.3,1.1c0.4,0.4,0.7,0.9,0.9,1.5
			C286.8,845.5,287,846.2,287,846.9"/>
		<path id="パス_4034" class="st0" d="M281.9,853.3c-1.1,0-2.1-0.2-3.1-0.7c-0.9-0.4-1.8-1.1-2.4-1.9c-0.3-0.4-0.3-0.9,0-1.2
			l1.4-1.7c0.2-0.2,0.5-0.4,0.8-0.4c0.3,0,0.6,0.1,0.8,0.4c0.3,0.4,0.7,0.7,1.2,1c0.4,0.2,0.9,0.3,1.4,0.3c0.5,0,0.9-0.2,1.2-0.5
			c0.4-0.5,0.5-1,0.5-1.6c0-0.3,0-0.6-0.2-0.9c-0.1-0.3-0.3-0.5-0.5-0.7c-0.2-0.2-0.5-0.5-0.8-0.7c-0.3-0.2-0.7-0.4-1.1-0.6
			c-0.5-0.3-1.1-0.6-1.6-0.9c-0.5-0.4-1-0.8-1.4-1.2c-0.4-0.5-0.8-1.1-1-1.7c-0.3-0.7-0.4-1.5-0.4-2.3c0-0.9,0.2-1.9,0.5-2.7
			c0.3-0.8,0.8-1.4,1.3-2c0.6-0.5,1.2-0.9,1.9-1.2c0.7-0.2,1.4-0.4,2.1-0.4c1,0,1.9,0.2,2.8,0.5c0.9,0.4,1.6,0.9,2.2,1.6
			c0.3,0.4,0.3,0.9,0,1.2l-1.4,1.7c-0.2,0.2-0.5,0.4-0.8,0.4c-0.3,0-0.6-0.2-0.8-0.4c-0.4-0.6-1.2-1-1.9-0.9c-0.2,0-0.4,0-0.7,0.1
			c-0.2,0.1-0.4,0.2-0.5,0.3c-0.2,0.2-0.3,0.4-0.4,0.6c-0.1,0.3-0.2,0.7-0.2,1c0,0.3,0,0.6,0.1,0.8c0.1,0.2,0.2,0.5,0.4,0.6
			c0.2,0.2,0.4,0.4,0.7,0.6c0.3,0.2,0.6,0.4,1,0.6c0.5,0.3,1,0.6,1.5,0.9c0.5,0.4,1,0.8,1.5,1.3c0.5,0.5,0.9,1.1,1.1,1.8
			c0.3,0.8,0.4,1.6,0.4,2.4c0,0.9-0.1,1.8-0.5,2.6c-0.3,0.8-0.7,1.4-1.3,2c-0.5,0.6-1.2,1-1.9,1.3
			C283.5,853.1,282.7,853.3,281.9,853.3 M278.5,850.1c0.3,0.3,0.7,0.5,1.1,0.7c0.7,0.3,1.5,0.5,2.3,0.5c0.6,0,1.1-0.1,1.6-0.3
			c0.5-0.2,0.9-0.5,1.3-0.8c0.4-0.4,0.7-0.9,0.9-1.4c0.2-0.6,0.3-1.3,0.3-1.9c0-0.5-0.1-1.1-0.3-1.6c-0.2-0.4-0.4-0.8-0.8-1.2
			c-0.3-0.4-0.7-0.7-1.1-0.9c-0.4-0.3-0.9-0.5-1.4-0.8c-0.4-0.2-0.8-0.4-1.2-0.7c-0.4-0.2-0.7-0.5-1.1-0.9c-0.3-0.4-0.6-0.8-0.8-1.2
			c-0.2-0.5-0.3-1.1-0.3-1.6c0-0.6,0.1-1.2,0.3-1.8c0.2-0.5,0.5-0.9,0.9-1.3c0.4-0.3,0.8-0.6,1.2-0.8c0.4-0.1,0.9-0.2,1.3-0.2
			c0.9,0,1.9,0.3,2.6,0.8l0.2-0.2c-0.3-0.2-0.5-0.4-0.8-0.5c-0.6-0.3-1.3-0.4-2-0.4c-0.5,0-1,0.1-1.5,0.3c-0.5,0.2-0.9,0.4-1.2,0.8
			c-0.4,0.4-0.7,0.8-0.9,1.3c-0.2,0.6-0.4,1.3-0.3,2c0,0.6,0.1,1.1,0.2,1.6c0.1,0.4,0.4,0.8,0.6,1.1c0.3,0.3,0.6,0.6,1,0.9
			c0.4,0.3,0.8,0.5,1.3,0.8c0.4,0.2,0.9,0.5,1.3,0.7c0.4,0.3,0.8,0.6,1.1,0.9c0.4,0.4,0.6,0.8,0.9,1.3c0.2,0.5,0.3,1.1,0.3,1.6
			c0.1,1.1-0.3,2.2-1,3c-0.7,0.7-1.7,1.1-2.7,1.1c-0.8,0-1.6-0.2-2.3-0.6c-0.4-0.2-0.7-0.4-1-0.6L278.5,850.1z"/>
		<g id="グループ_6289" transform="translate(295 834.524)">
			<g>
				<defs>
					<rect id="SVGID_1_" x="0" y="0" width="19.4" height="18.8"/>
				</defs>
				<clipPath id="SVGID_00000125565665526430904140000013398456784853951419_">
					<use xlink:href="#SVGID_1_"  style="overflow:visible;"/>
				</clipPath>
				
					<g id="グループ_6288" transform="translate(0 0)" style="clip-path:url(#SVGID_00000125565665526430904140000013398456784853951419_);">
					<path id="パス_5499" class="st2" d="M12.1,0h-10c-1,0-1.8,0.8-1.8,1.8s0.8,1.8,1.8,1.8h10c2.1,0,3.8,1.8,3.8,3.9
						c0,2.1-1.7,3.8-3.8,3.8H7.5V8.6c0-0.8-0.6-1.4-1.4-1.4c-0.4,0-0.7,0.1-1,0.4l-4.7,4.4c-0.6,0.5-0.6,1.4-0.1,2c0,0,0,0,0.1,0.1
						l4.7,4.4c0.6,0.5,1.5,0.5,2-0.1c0.2-0.3,0.4-0.6,0.4-1v-2.7h4.6c4.1,0,7.3-3.4,7.3-7.4C19.3,3.3,16.1,0,12.1,0"/>
				</g>
			</g>
		</g>
	</g>
	<g id="グループ_8136" transform="translate(267.09 887.666)">
		<g>
			<defs>
				<rect id="SVGID_00000044156524770873833250000010626098608357780135_" y="0" width="5.8" height="12.5"/>
			</defs>
			<clipPath id="SVGID_00000050654540879159357880000015315914055686747569_">
				<use xlink:href="#SVGID_00000044156524770873833250000010626098608357780135_"  style="overflow:visible;"/>
			</clipPath>
			
				<g id="グループ_8135" transform="translate(0 0)" style="clip-path:url(#SVGID_00000050654540879159357880000015315914055686747569_);">
				<path id="パス_6934" class="st0" d="M5.2,10H2.6V0.6C2.6,0.3,2.4,0,2,0H0.6C0.3,0,0,0.3,0,0.6c0,0,0,0,0,0v11.3
					c0,0.3,0.3,0.6,0.6,0.6c0,0,0,0,0,0h4.6c0.3,0,0.6-0.3,0.6-0.6l0,0v-1.3C5.8,10.3,5.6,10,5.2,10C5.2,10,5.2,10,5.2,10"/>
			</g>
		</g>
	</g>
</g>
</svg>
