<svg xmlns="http://www.w3.org/2000/svg" xmlns:xlink="http://www.w3.org/1999/xlink" width="47.695" height="21.522" viewBox="0 0 47.695 21.522">
  <defs>
    <clipPath id="clip-path">
      <rect id="長方形_5536" data-name="長方形 5536" width="19.436" height="18.763" fill="none"/>
    </clipPath>
  </defs>
  <g id="グループ_7622" data-name="グループ 7622" transform="translate(-266.74 -831.766)">
    <path id="パス_4031" data-name="パス 4031" d="M5.584,25.035l-1.9-4.995h-1.3v4.995H1V13.844H3.9a3.989,3.989,0,0,1,1.165.166,2.553,2.553,0,0,1,.959.53,2.489,2.489,0,0,1,.65.948,3.744,3.744,0,0,1,.237,1.407,3.637,3.637,0,0,1-.175,1.186,2.961,2.961,0,0,1-.456.861,2.358,2.358,0,0,1-.614.561,1.972,1.972,0,0,1-.651.269l2.1,5.263ZM5.489,16.95a2.389,2.389,0,0,0-.158-.937,1.628,1.628,0,0,0-.411-.587,1.424,1.424,0,0,0-.585-.31,2.612,2.612,0,0,0-.664-.088H2.391v3.9H3.7A1.706,1.706,0,0,0,5,18.418a2.051,2.051,0,0,0,.49-1.468" transform="translate(266.398 827.039)" fill="#ffba00"/>
    <path id="パス_4032" data-name="パス 4032" d="M6.775,25.351H5.242a.66.66,0,0,1-.616-.425l-1.735-4.57H2.708v4.336a.658.658,0,0,1-.659.659H.659A.658.658,0,0,1,0,24.693V13.5a.658.658,0,0,1,.659-.659h2.9a4.689,4.689,0,0,1,1.357.194,3.221,3.221,0,0,1,1.2.666A3.157,3.157,0,0,1,6.942,14.9a4.389,4.389,0,0,1,.286,1.654,4.3,4.3,0,0,1-.211,1.4,3.647,3.647,0,0,1-.561,1.053,3.023,3.023,0,0,1-.788.715c-.045.028-.092.055-.137.08l1.856,4.647a.658.658,0,0,1-.611.9M5.7,24.034H5.8l-1.741-4.36a.662.662,0,0,1,.009-.512,2.4,2.4,0,0,1-.274.057.645.645,0,0,1,.164.245Zm-4.38,0h.074V19.7a.657.657,0,0,1,.3-.553.657.657,0,0,1-.3-.553v-3.9a.659.659,0,0,1,.263-.527H1.317Zm3.354-9.688a2.08,2.08,0,0,1,.342.243,2.3,2.3,0,0,1,.58.82,3,3,0,0,1,.213,1.2,2.814,2.814,0,0,1-.5,1.718c.039-.042.077-.086.115-.134a2.33,2.33,0,0,0,.351-.671,2.977,2.977,0,0,0,.139-.969,3.1,3.1,0,0,0-.189-1.158,1.822,1.822,0,0,0-.475-.7,1.847,1.847,0,0,0-.575-.346M2.708,17.933h.653a1.052,1.052,0,0,0,.819-.312,1.436,1.436,0,0,0,.309-1.014,1.722,1.722,0,0,0-.1-.676,1,1,0,0,0-.241-.354.78.78,0,0,0-.318-.167,1.971,1.971,0,0,0-.5-.066H2.708Z" transform="translate(266.74 827.381)" fill="#ffba00"/>
    <path id="パス_4033" data-name="パス 4033" d="M25.628,15.647a6.235,6.235,0,0,1-.4,2.279,4.955,4.955,0,0,1-1.067,1.7,4.588,4.588,0,0,1-1.594,1.054,5.272,5.272,0,0,1-1.976.368,6.349,6.349,0,0,1-2.7-.592,5.466,5.466,0,0,1-2.042-1.567l1.4-1.713a4.247,4.247,0,0,0,1.515,1.238,4.1,4.1,0,0,0,1.831.448,2.6,2.6,0,0,0,1.949-.79,3.17,3.17,0,0,0,.764-2.293,3.086,3.086,0,0,0-.237-1.251,3.31,3.31,0,0,0-.659-.975,5.756,5.756,0,0,0-.962-.79,11.469,11.469,0,0,0-1.172-.671,10.852,10.852,0,0,1-1.436-.83,6.348,6.348,0,0,1-1.2-1.067,4.539,4.539,0,0,1-.83-1.436,5.718,5.718,0,0,1-.3-1.962,6,6,0,0,1,.421-2.345,4.81,4.81,0,0,1,1.12-1.66,4.46,4.46,0,0,1,1.594-.974A5.422,5.422,0,0,1,21.466,1.5a6.179,6.179,0,0,1,2.41.447,4.423,4.423,0,0,1,1.778,1.344L24.232,4.978a3.2,3.2,0,0,0-2.687-1.317,2.965,2.965,0,0,0-.988.171,2.423,2.423,0,0,0-.882.553,2.794,2.794,0,0,0-.632.962,3.687,3.687,0,0,0-.237,1.4,3.053,3.053,0,0,0,.224,1.226,3.231,3.231,0,0,0,.606.921,4.807,4.807,0,0,0,.882.738,10.35,10.35,0,0,0,1.08.62,15.083,15.083,0,0,1,1.449.83,6.625,6.625,0,0,1,1.291,1.093,5.044,5.044,0,0,1,.935,1.488,5.163,5.163,0,0,1,.356,1.99" transform="translate(261.326 831.253)" fill="#ffba00"/>
    <path id="パス_4034" data-name="パス 4034" d="M20.086,21.522a7.344,7.344,0,0,1-3.116-.684,6.45,6.45,0,0,1-2.4-1.853.989.989,0,0,1,.012-1.234l1.4-1.713a1.008,1.008,0,0,1,.781-.363.986.986,0,0,1,.769.386,3.236,3.236,0,0,0,1.167.954,3.1,3.1,0,0,0,1.395.346,1.613,1.613,0,0,0,1.239-.489,2.261,2.261,0,0,0,.486-1.606,2.137,2.137,0,0,0-.153-.853,2.306,2.306,0,0,0-.465-.686,4.738,4.738,0,0,0-.795-.653,10.583,10.583,0,0,0-1.07-.612,11.887,11.887,0,0,1-1.554-.9,7.338,7.338,0,0,1-1.384-1.233,5.527,5.527,0,0,1-1.013-1.746,6.728,6.728,0,0,1-.362-2.3,7.02,7.02,0,0,1,.5-2.728A5.814,5.814,0,0,1,16.865,1.56,5.461,5.461,0,0,1,18.809.372,6.426,6.426,0,0,1,20.954,0a7.173,7.173,0,0,1,2.793.525,5.4,5.4,0,0,1,2.169,1.64A.987.987,0,0,1,25.9,3.415L24.476,5.1a1.016,1.016,0,0,1-.78.351.991.991,0,0,1-.762-.39,2.216,2.216,0,0,0-1.9-.927,1.968,1.968,0,0,0-.661.116,1.425,1.425,0,0,0-.524.332,1.807,1.807,0,0,0-.4.625,2.74,2.74,0,0,0-.164,1.021,2.121,2.121,0,0,0,.142.83,2.27,2.27,0,0,0,.423.641,3.857,3.857,0,0,0,.7.587,9.4,9.4,0,0,0,.979.561,16.022,16.022,0,0,1,1.544.884,7.643,7.643,0,0,1,1.482,1.255,6.074,6.074,0,0,1,1.12,1.777,6.158,6.158,0,0,1,.431,2.368,7.258,7.258,0,0,1-.462,2.637A5.937,5.937,0,0,1,24.36,19.8a5.582,5.582,0,0,1-1.932,1.279,6.272,6.272,0,0,1-2.342.439m-3.426-3.2a4.955,4.955,0,0,0,1.141.722,5.388,5.388,0,0,0,2.285.5,4.32,4.32,0,0,0,1.61-.3,3.587,3.587,0,0,0,1.254-.828,4.017,4.017,0,0,0,.853-1.367,5.3,5.3,0,0,0,.327-1.92,4.211,4.211,0,0,0-.279-1.61,4.074,4.074,0,0,0-.753-1.2,5.643,5.643,0,0,0-1.1-.932,13.9,13.9,0,0,0-1.352-.775,11.5,11.5,0,0,1-1.182-.678A5.8,5.8,0,0,1,18.4,9.05a4.223,4.223,0,0,1-.79-1.2,4.055,4.055,0,0,1-.306-1.619,4.7,4.7,0,0,1,.31-1.771,3.783,3.783,0,0,1,.861-1.3,3.408,3.408,0,0,1,1.241-.775,3.975,3.975,0,0,1,1.317-.227,4.249,4.249,0,0,1,2.622.85l.151-.18a3.572,3.572,0,0,0-.825-.484,5.236,5.236,0,0,0-2.028-.37,4.471,4.471,0,0,0-1.488.259A3.507,3.507,0,0,0,18.221,3a3.846,3.846,0,0,0-.887,1.324,5.062,5.062,0,0,0-.344,1.961,4.76,4.76,0,0,0,.243,1.623,3.556,3.556,0,0,0,.647,1.127,5.329,5.329,0,0,0,1.013.9,9.929,9.929,0,0,0,1.3.754,12.814,12.814,0,0,1,1.286.735,6.809,6.809,0,0,1,1.127.929,4.3,4.3,0,0,1,.854,1.266,4.068,4.068,0,0,1,.321,1.648,4.125,4.125,0,0,1-1.041,2.979,3.563,3.563,0,0,1-2.66,1.092,5.1,5.1,0,0,1-2.269-.551,5.347,5.347,0,0,1-1.008-.644Z" transform="translate(261.84 831.766)" fill="#ffba00"/>
    <g id="グループ_6289" data-name="グループ 6289" transform="translate(295 834.524)">
      <g id="グループ_6288" data-name="グループ 6288" transform="translate(0 0)">
        <path id="パス_5499" data-name="パス 5499" d="M12.079,0H2.1a1.748,1.748,0,0,0,0,3.5h9.982a3.861,3.861,0,0,1,0,7.721H7.514V8.569A1.4,1.4,0,0,0,5.161,7.546l-4.717,4.4a1.4,1.4,0,0,0,0,2.046l4.717,4.4a1.4,1.4,0,0,0,2.353-1.023V14.715h4.564A7.358,7.358,0,0,0,12.079,0" transform="translate(0 0)" fill="#55c3d7"/>
      </g>
    </g>
  </g>
</svg>
