<svg xmlns="http://www.w3.org/2000/svg" xmlns:xlink="http://www.w3.org/1999/xlink" width="57.277" height="29.827" viewBox="0 0 57.277 29.827">
  <defs>
    <clipPath id="clip-path">
      <rect id="長方形_4624" data-name="長方形 4624" width="18.802" height="15.129" fill="#bfbfbf"/>
    </clipPath>
  </defs>
  <g id="グループ_7623" data-name="グループ 7623" transform="translate(-831.466 -1610.186)">
    <path id="パス_6669" data-name="パス 6669" d="M-28.534-7.788H-26.2l3.311,5.412h.022V-7.788h1.716V0H-23.4l-3.4-5.544h-.022V0h-1.716Zm8.547,3.894a4.4,4.4,0,0,1,.313-1.694A3.715,3.715,0,0,1-18.8-6.881,3.853,3.853,0,0,1-17.468-7.7a4.8,4.8,0,0,1,1.683-.286A4.8,4.8,0,0,1-14.1-7.7a3.853,3.853,0,0,1,1.331.819A3.715,3.715,0,0,1-11.9-5.588a4.4,4.4,0,0,1,.313,1.694A4.4,4.4,0,0,1-11.9-2.2a3.715,3.715,0,0,1-.875,1.293,3.853,3.853,0,0,1-1.331.82A4.8,4.8,0,0,1-15.785.2a4.8,4.8,0,0,1-1.683-.286A3.853,3.853,0,0,1-18.8-.908,3.715,3.715,0,0,1-19.674-2.2,4.4,4.4,0,0,1-19.987-3.894Zm1.782,0a2.856,2.856,0,0,0,.17,1.007,2.305,2.305,0,0,0,.49.792,2.234,2.234,0,0,0,.764.522,2.549,2.549,0,0,0,1,.187,2.549,2.549,0,0,0,1-.187,2.234,2.234,0,0,0,.764-.522,2.305,2.305,0,0,0,.49-.792,2.856,2.856,0,0,0,.17-1.007,2.869,2.869,0,0,0-.17-1,2.3,2.3,0,0,0-.49-.8,2.234,2.234,0,0,0-.764-.523,2.549,2.549,0,0,0-1-.187,2.549,2.549,0,0,0-1,.187,2.234,2.234,0,0,0-.764.523,2.3,2.3,0,0,0-.49.8A2.869,2.869,0,0,0-18.2-3.894ZM-7.183-7.788h1.716V0H-7.183Zm3.278,0h2.6L.484-2.706H.506l1.8-5.082H4.895V0H3.179V-5.973H3.157L1.111,0H-.2L-2.167-5.973h-.022V0H-3.905Zm12.947,0h1.419L13.849,0H11.913l-.671-1.65H8.217L7.568,0H5.676ZM9.7-5.522,8.756-3.1h1.9ZM21.681-.55A6.212,6.212,0,0,1,20.1.022,8.044,8.044,0,0,1,18.414.2a4.8,4.8,0,0,1-1.683-.286A3.853,3.853,0,0,1,15.4-.908,3.715,3.715,0,0,1,14.526-2.2a4.4,4.4,0,0,1-.314-1.694,4.4,4.4,0,0,1,.314-1.694A3.715,3.715,0,0,1,15.4-6.881,3.853,3.853,0,0,1,16.731-7.7a4.8,4.8,0,0,1,1.683-.286,6.229,6.229,0,0,1,1.722.226,3.371,3.371,0,0,1,1.38.776l-1.21,1.32a2.411,2.411,0,0,0-.792-.55,2.822,2.822,0,0,0-1.1-.187,2.549,2.549,0,0,0-1,.187,2.234,2.234,0,0,0-.764.523,2.3,2.3,0,0,0-.49.8,2.869,2.869,0,0,0-.17,1,2.856,2.856,0,0,0,.17,1.007,2.305,2.305,0,0,0,.49.792,2.234,2.234,0,0,0,.764.522,2.549,2.549,0,0,0,1,.187,3.28,3.28,0,0,0,.968-.127,3.653,3.653,0,0,0,.649-.258V-3.036h-1.4V-4.62h3.047Zm1.573-7.238h5.291V-6.2H24.97v1.452h3.377v1.584H24.97v1.584h3.773V0H23.254Z" transform="translate(860 1639.814)" fill="#bfbfbf"/>
    <g id="グループ_7537" data-name="グループ 7537" transform="translate(850.598 1610.186)">
      <g id="グループ_2743" data-name="グループ 2743" clip-path="url(#clip-path)">
        <path id="パス_5022" data-name="パス 5022" d="M16.395,2.548H14.071l-.284-.74A2.909,2.909,0,0,0,11.157,0H7.645a2.91,2.91,0,0,0-2.63,1.808l-.284.74H2.407A2.41,2.41,0,0,0,0,4.955v7.767a2.41,2.41,0,0,0,2.407,2.407H16.395A2.41,2.41,0,0,0,18.8,12.722V4.955a2.41,2.41,0,0,0-2.407-2.407m.9,10.174a.905.905,0,0,1-.9.9H2.407a.905.905,0,0,1-.9-.9V4.955a.905.905,0,0,1,.9-.9H4.862A1.417,1.417,0,0,0,6.088,3.21l.331-.863A1.417,1.417,0,0,1,7.645,1.5h3.512a1.417,1.417,0,0,1,1.226.843l.331.863a1.417,1.417,0,0,0,1.226.843h2.455a.905.905,0,0,1,.9.9Z" fill="#bfbfbf"/>
        <path id="パス_5023" data-name="パス 5023" d="M73.512,54.773A4.187,4.187,0,1,0,77.7,58.96a4.191,4.191,0,0,0-4.187-4.187m0,7.17a2.983,2.983,0,1,1,2.983-2.983,2.983,2.983,0,0,1-2.983,2.983" transform="translate(-64.111 -50.653)" fill="#bfbfbf"/>
        <path id="パス_5024" data-name="パス 5024" d="M103.635,87.346a1.737,1.737,0,1,0,1.737,1.737,1.737,1.737,0,0,0-1.737-1.737" transform="translate(-94.234 -80.776)" fill="#bfbfbf"/>
        <path id="パス_5025" data-name="パス 5025" d="M193.467,70.773a.752.752,0,1,0,.752.752.752.752,0,0,0-.752-.752" transform="translate(-178.22 -65.45)" fill="#bfbfbf"/>
      </g>
    </g>
  </g>
</svg>
