<?xml version="1.0" encoding="utf-8"?>
<!-- Generator: Adobe Illustrator 26.0.3, SVG Export Plug-In . SVG Version: 6.00 Build 0)  -->
<svg version="1.1" id="レイヤー_1" xmlns="http://www.w3.org/2000/svg" xmlns:xlink="http://www.w3.org/1999/xlink" x="0px"
	 y="0px" viewBox="0 0 50 50" style="enable-background:new 0 0 50 50;" xml:space="preserve">
<style type="text/css">
	.st0{clip-path:url(#SVGID_00000004508548459956750140000002703650189044242356_);}
	.st1{fill:#FFB800;}
	.st2{fill:#55C3D7;}
	.st3{fill:none;}
</style>
<g id="グループ_8617" transform="translate(-510 -195.996)">
	<g id="グループ_8608" transform="translate(510 195.996)">
		<g>
			<defs>
				<rect id="SVGID_1_" width="50" height="50"/>
			</defs>
			<clipPath id="SVGID_00000178895108920192807590000013655871221831487665_">
				<use xlink:href="#SVGID_1_"  style="overflow:visible;"/>
			</clipPath>
			
				<g id="グループ_8607" transform="translate(0 0)" style="clip-path:url(#SVGID_00000178895108920192807590000013655871221831487665_);">
				<path id="パス_7972" class="st1" d="M25,24.7c-0.8,0-1.4-0.6-1.4-1.4c0,0,0,0,0,0v-19C23.6,3.6,24.2,3,25,3
					c0.8,0,1.4,0.6,1.4,1.4c0,0,0,0,0,0v19C26.4,24.1,25.8,24.7,25,24.7L25,24.7"/>
				<path id="パス_7973" class="st1" d="M43,24.7c-0.8,0-1.4-0.6-1.4-1.4v0v-5H8.3v5c0,0.8-0.6,1.4-1.4,1.4
					c-0.8,0-1.4-0.6-1.4-1.4v-6.4c0-0.8,0.6-1.4,1.4-1.4H43c0.8,0,1.4,0.6,1.4,1.4c0,0,0,0,0,0v6.4C44.4,24.1,43.8,24.7,43,24.7
					L43,24.7"/>
				<path id="パス_7974" class="st2" d="M31.8,30c-0.1-0.1-0.3-0.1-0.5-0.1L27.5,32l-2.2-4.1c-0.1-0.2-0.4-0.3-0.6-0.2
					c-0.1,0-0.1,0.1-0.2,0.2L22.4,32l-3.7-2.1c-0.2-0.1-0.5,0-0.6,0.2c-0.1,0.1-0.1,0.2,0,0.4l2.2,5.9c0,0,0,0,0,0c0,0,0,0,0,0l0,0
					l0,0c0,0,0,0,0,0c0,0,0,0,0,0c0,0,0,0,0,0l0,0c0,0,0,0,0.1,0c0,0,0,0,0,0h0c0,0,0.1,0,0.1,0h8.6c0,0,0.1,0,0.1,0h0l0,0
					c0,0,0,0,0.1,0l0,0c0,0,0,0,0,0c0,0,0,0,0,0c0,0,0,0,0,0l0,0c0,0,0,0,0,0c0,0,0,0,0,0c0,0,0,0,0,0l2.2-5.9
					C31.9,30.3,31.9,30.1,31.8,30"/>
				<path id="パス_7975" class="st2" d="M13.7,30c-0.1-0.1-0.3-0.1-0.5-0.1L9.5,32l-2.2-4.1c-0.1-0.2-0.4-0.3-0.6-0.2
					c-0.1,0-0.1,0.1-0.2,0.2L4.4,32l-3.7-2.1c-0.2-0.1-0.5,0-0.6,0.2C0,30.2,0,30.4,0,30.5l2.2,5.9c0,0,0,0,0,0c0,0,0,0,0,0l0,0l0,0
					c0,0,0,0,0,0c0,0,0,0,0,0c0,0,0,0,0,0l0,0c0,0,0,0,0.1,0c0,0,0,0,0,0h0c0,0,0.1,0,0.1,0h8.6c0,0,0.1,0,0.1,0h0l0,0
					c0,0,0,0,0.1,0l0,0c0,0,0,0,0,0c0,0,0,0,0,0c0,0,0,0,0,0l0,0c0,0,0,0,0,0c0,0,0,0,0,0c0,0,0,0,0,0l2.2-5.9
					C13.9,30.3,13.9,30.1,13.7,30"/>
				<path id="パス_7976" class="st2" d="M49.8,30c-0.1-0.1-0.3-0.1-0.5-0.1L45.6,32l-2.2-4.1c-0.1-0.2-0.4-0.3-0.6-0.2
					c-0.1,0-0.1,0.1-0.2,0.2L40.5,32l-3.7-2.1c-0.2-0.1-0.5,0-0.6,0.2c-0.1,0.1-0.1,0.2,0,0.4l2.2,5.9c0,0,0,0,0,0c0,0,0,0,0,0l0,0
					l0,0c0,0,0,0,0,0c0,0,0,0,0,0c0,0,0,0,0,0l0,0c0,0,0,0,0.1,0c0,0,0,0,0,0h0c0,0,0.1,0,0.1,0h8.6c0,0,0.1,0,0.1,0h0l0,0
					c0,0,0,0,0.1,0l0,0c0,0,0,0,0,0c0,0,0,0,0,0c0,0,0,0,0,0l0,0c0,0,0,0,0,0c0,0,0,0,0,0c0,0,0,0,0,0l2.2-5.9
					C50,30.3,49.9,30.1,49.8,30"/>
				<path id="パス_7977" class="st1" d="M29.3,4.4c0,2.4-2,4.4-4.4,4.4c-2.4,0-4.4-2-4.4-4.4C20.6,2,22.6,0,25,0c0,0,0,0,0,0
					C27.4,0,29.3,2,29.3,4.4"/>
				<path id="パス_7978" class="st1" d="M30.2,39.9h-2.9c-0.6,0-1.1,0.5-1.1,1.1l0,0c0,0.7-0.6,1.2-1.2,1.2s-1.2-0.6-1.2-1.2
					c0-0.6-0.5-1.1-1.1-1.1l0,0h-2.9c-0.6,0-1.1,0.5-1.1,1.1l0,0v2.6c0,0.6,0.5,1.1,1.1,1.1c0,0,0,0,0,0h0.7v4.1
					c0,0.6,0.5,1.1,1.1,1.1c0,0,0,0,0,0h6.9c0.6,0,1.1-0.5,1.1-1.1l0,0v-4.1h0.6c0.6,0,1.1-0.5,1.1-1.1l0,0V41
					C31.3,40.4,30.8,39.9,30.2,39.9L30.2,39.9"/>
				<path id="パス_7979" class="st1" d="M48.4,48.6l-1.7-7.8c-0.1-0.5-0.6-0.9-1.1-0.9h-5.1c-0.5,0-1,0.4-1.1,0.9l-1.7,7.8
					c-0.1,0.6,0.3,1.2,0.9,1.3c0.1,0,0.2,0,0.2,0h8.5c0.6,0,1.1-0.5,1.1-1.1C48.4,48.8,48.4,48.7,48.4,48.6"/>
				<path id="パス_7980" class="st1" d="M12.8,48.7l-1.1-7.8c-0.1-0.6-0.6-1-1.1-1H3.3c-0.6,0-1,0.4-1.1,1L1,48.7
					C0.9,49.3,1.4,49.9,2,50c0.1,0,0.1,0,0.2,0h2.4c0.5,0,0.9-0.3,1.1-0.8l1.3-4.3l1.3,4.3C8.4,49.7,8.8,50,9.3,50h2.4
					c0.6,0,1.1-0.5,1.1-1.1C12.8,48.8,12.8,48.8,12.8,48.7"/>
			</g>
		</g>
	</g>
	<rect id="長方形_9051" x="510" y="196" class="st3" width="50" height="50"/>
</g>
</svg>
