<svg xmlns="http://www.w3.org/2000/svg" xmlns:xlink="http://www.w3.org/1999/xlink" width="50" height="50" viewBox="0 0 50 50">
  <defs>
    <clipPath id="clip-path">
      <rect id="長方形_4821" data-name="長方形 4821" width="50" height="49.12" fill="none"/>
    </clipPath>
  </defs>
  <g id="グループ_6596" data-name="グループ 6596" transform="translate(-5162 8462)">
    <g id="グループ_2911" data-name="グループ 2911" transform="translate(5162 -8461.561)">
      <g id="グループ_2909" data-name="グループ 2909" transform="translate(0 0)" clip-path="url(#clip-path)">
        <path id="パス_5125" data-name="パス 5125" d="M45.993,3.013a.568.568,0,0,0-.644-.068L40.555,5.587,37.78.281a.59.59,0,0,0-1.005,0L34,5.587,29.206,2.945a.568.568,0,0,0-.805.7l2.839,7.629c.005.014.015.023.02.037a.612.612,0,0,0,.026.06l.009.011c.006.009.012.016.018.024a.4.4,0,0,0,.037.044.556.556,0,0,0,.058.058c.01.009.018.017.028.024s.022.015.033.022a.6.6,0,0,0,.086.043.273.273,0,0,0,.037.017l.02.006a.547.547,0,0,0,.159.024H42.785a.553.553,0,0,0,.159-.024l.02-.006A.246.246,0,0,0,43,11.591a.55.55,0,0,0,.086-.043.344.344,0,0,0,.034-.022c.01-.007.019-.016.028-.024a.563.563,0,0,0,.058-.058.464.464,0,0,0,.036-.044c.006-.009.012-.015.018-.024a.08.08,0,0,0,.009-.011.505.505,0,0,0,.027-.06c.006-.014.015-.023.02-.037l2.838-7.629a.567.567,0,0,0-.161-.627" transform="translate(-12.277 0)" fill="#55c3d7"/>
        <path id="パス_5126" data-name="パス 5126" d="M44.62,61.353H29.088a1.7,1.7,0,0,1-1.7-1.7V29.966a1.7,1.7,0,0,1,1.7-1.7H44.62a1.7,1.7,0,0,1,1.7,1.7V59.652a1.7,1.7,0,0,1-1.7,1.7m-13.831-3.4h12.13V31.667H30.789Z" transform="translate(-11.853 -12.233)" fill="#ffb800"/>
        <path id="パス_5127" data-name="パス 5127" d="M17.234,69.61H1.7a1.7,1.7,0,0,1-1.7-1.7V49.042a1.7,1.7,0,0,1,1.7-1.7H17.234a1.7,1.7,0,0,1,1.7,1.7V67.908a1.7,1.7,0,0,1-1.7,1.7M3.4,66.207h12.13V50.743H3.4Z" transform="translate(0 -20.49)" fill="#ffb800"/>
        <path id="パス_5128" data-name="パス 5128" d="M72,73.688H56.473a1.7,1.7,0,0,1-1.7-1.7V58.465a1.7,1.7,0,0,1,1.7-1.7H72a1.7,1.7,0,0,1,1.7,1.7V71.987a1.7,1.7,0,0,1-1.7,1.7m-13.831-3.4H70.3V60.166H58.174Z" transform="translate(-23.706 -24.568)" fill="#ffb800"/>
      </g>
    </g>
    <rect id="長方形_6221" data-name="長方形 6221" width="50" height="50" transform="translate(5162 -8462)" fill="none"/>
  </g>
</svg>
