<?xml version="1.0" encoding="utf-8"?>
<!-- Generator: Adobe Illustrator 26.0.3, SVG Export Plug-In . SVG Version: 6.00 Build 0)  -->
<svg version="1.1" id="レイヤー_1" xmlns="http://www.w3.org/2000/svg" xmlns:xlink="http://www.w3.org/1999/xlink" x="0px" y="0px" viewBox="0 0 20 16.6" style="enable-background:new 0 0 20 16.6;" xml:space="preserve">
	<style type="text/css">
		.st0{clip-path:url(#SVGID_00000038374955150906050420000009202013523576529573_);}
	</style>
	<g id="グループ_6756" transform="translate(0 0)">
		<g>
			<defs>
				<rect id="SVGID_1_" width="20" height="16.6" />
			</defs>
			<clipPath id="SVGID_00000175297705711668876470000013922404915288243873_">
				<use xlink:href="#SVGID_1_" style="overflow:visible;" />
			</clipPath>

			<g id="グループ_6755" transform="translate(0 0)" style="clip-path:url(#SVGID_00000175297705711668876470000013922404915288243873_);">
				<path id="パス_6011" fill='currentColor' class="st1" d="M1.4,12.2h17.1L20,5c0.1-0.5-0.2-0.9-0.7-1c-0.2,0-0.4,0-0.6,0.1L14,7.4l-3.2-6.9
				c-0.2-0.4-0.7-0.6-1.1-0.4C9.5,0.2,9.3,0.3,9.2,0.5L6,7.4L1.3,4.2C0.9,3.9,0.4,4,0.1,4.4C0,4.6,0,4.8,0,5L1.4,12.2z" />
				<path id="パス_6012" fill='currentColor' class="st1" d="M1.8,13.9l0.4,2c0,0,0,0,0,0c0,0,0,0,0,0c0,0,0,0,0,0l0,0c0,0.1,0,0.1,0.1,0.2c0,0,0,0,0,0
				v0c0,0,0,0,0,0s0,0,0,0.1c0,0,0.1,0.1,0.1,0.1c0,0,0,0,0,0s0,0,0.1,0c0,0,0.1,0.1,0.1,0.1c0,0,0,0,0.1,0s0,0,0,0
				c0.1,0,0.2,0,0.2,0h14c0.1,0,0.2,0,0.2,0c0,0,0,0,0,0c0,0,0,0,0,0c0,0,0.1,0,0.1-0.1c0,0,0,0,0.1,0c0,0,0,0,0,0
				c0,0,0.1-0.1,0.1-0.1c0,0,0,0,0-0.1c0,0,0,0,0,0v0c0,0,0,0,0,0c0,0,0.1-0.1,0.1-0.2l0,0c0,0,0,0,0,0c0,0,0,0,0,0c0,0,0,0,0,0
				l0.4-2H1.8z" />
			</g>
		</g>
	</g>
</svg>