<svg xmlns="http://www.w3.org/2000/svg" width="40" height="40" viewBox="0 0 40 40">
  <g id="グループ_2088" data-name="グループ 2088" transform="translate(-893 -275.172)">
    <g id="楕円形_51" data-name="楕円形 51" transform="translate(895 277.172)" fill="#fff" stroke="#ffba00" stroke-width="2">
      <circle cx="18" cy="18" r="18" stroke="none"/>
      <circle cx="18" cy="18" r="19" fill="none"/>
    </g>
    <path id="パス_4763" data-name="パス 4763" d="M70.369,38.526a4.651,4.651,0,0,0-8.75,0,1.3,1.3,0,1,0,2.476.77,2.068,2.068,0,0,1,3.8,0,1.3,1.3,0,1,0,2.476-.77" transform="translate(853.311 253.359)" fill="#4d4d4d"/>
    <path id="パス_4764" data-name="パス 4764" d="M25.932,35.453a4.55,4.55,0,0,0-4.375,3.072,1.3,1.3,0,1,0,2.476.77,2.068,2.068,0,0,1,3.8,0,1.3,1.3,0,1,0,2.476-.77,4.549,4.549,0,0,0-4.375-3.073" transform="translate(880.441 253.359)" fill="#4d4d4d"/>
    <path id="パス_4765" data-name="パス 4765" d="M48.292,68.042a.926.926,0,0,0-.746-.377H35.819a.926.926,0,0,0-.884,1.2,7.2,7.2,0,0,0,13.5,0,.927.927,0,0,0-.139-.824" transform="translate(871.074 231.629)" fill="#ec6b44"/>
  </g>
</svg>
