<svg id="グループ_6201" data-name="グループ 6201" xmlns="http://www.w3.org/2000/svg" xmlns:xlink="http://www.w3.org/1999/xlink" width="56.926" height="20.627" viewBox="0 0 56.926 20.627">
  <defs>
    <clipPath id="clip-path">
      <rect id="長方形_3348" data-name="長方形 3348" width="56.926" height="20.627" fill="none"/>
    </clipPath>
  </defs>
  <g id="グループ_1772" data-name="グループ 1772" transform="translate(0 0)">
    <path id="パス_3967" data-name="パス 3967" d="M77.1,20.151l-3.161-8.324h-2.16v8.324H69.459V1.5h4.833a6.652,6.652,0,0,1,1.941.277,4.254,4.254,0,0,1,1.6.882A4.156,4.156,0,0,1,78.915,4.24a6.237,6.237,0,0,1,.4,2.345,6.012,6.012,0,0,1-.294,1.976A4.893,4.893,0,0,1,78.258,10a3.937,3.937,0,0,1-1.024.935,3.31,3.31,0,0,1-1.083.448l3.5,8.772ZM76.94,6.676a3.963,3.963,0,0,0-.263-1.56,2.729,2.729,0,0,0-.685-.978,2.373,2.373,0,0,0-.975-.516,4.335,4.335,0,0,0-1.106-.146H71.777V9.983h2.186a2.842,2.842,0,0,0,2.161-.859,3.417,3.417,0,0,0,.817-2.447" transform="translate(-23.715 -0.512)" fill="#ffba00"/>
    <path id="パス_3968" data-name="パス 3968" d="M79.141,20.627H76.586a.987.987,0,0,1-.923-.637L72.744,12.3h-.491v7.336a.988.988,0,0,1-.988.988H68.947a.988.988,0,0,1-.988-.988V.988A.988.988,0,0,1,68.947,0H73.78a7.691,7.691,0,0,1,2.228.319,5.249,5.249,0,0,1,1.965,1.088,5.155,5.155,0,0,1,1.345,1.949,7.248,7.248,0,0,1,.468,2.717,7.021,7.021,0,0,1-.348,2.3,5.894,5.894,0,0,1-.918,1.722,4.926,4.926,0,0,1-1.283,1.166c-.1.063-.205.122-.309.176l3.129,7.836a.988.988,0,0,1-.917,1.354m-1.874-1.976h.416l-2.962-7.418a.989.989,0,0,1,.048-.838,1.1,1.1,0,0,1,.114-.166,4.089,4.089,0,0,1-1,.211.986.986,0,0,1,.466.525Zm-7.333,0h.342V11.315a.989.989,0,0,1,.632-.923.988.988,0,0,1-.632-.922V2.964a.988.988,0,0,1,.988-.988h-1.33ZM73.4,1.976a5.3,5.3,0,0,1,1.359.179,3.352,3.352,0,0,1,1.375.728,3.705,3.705,0,0,1,.939,1.328,4.865,4.865,0,0,1,.346,1.953,4.377,4.377,0,0,1-1.089,3.128,3.782,3.782,0,0,1-.639.538,2.736,2.736,0,0,0,.515-.252,2.985,2.985,0,0,0,.766-.705,3.979,3.979,0,0,0,.6-1.149,5.08,5.08,0,0,0,.238-1.651A5.282,5.282,0,0,0,77.487,4.1a3.18,3.18,0,0,0-.821-1.211,3.236,3.236,0,0,0-1.231-.678,5.68,5.68,0,0,0-1.655-.234ZM72.253,8.483h1.2A1.861,1.861,0,0,0,74.9,7.931a2.506,2.506,0,0,0,.545-1.767A3.015,3.015,0,0,0,75.258,5a1.746,1.746,0,0,0-.431-.629,1.381,1.381,0,0,0-.573-.3,3.372,3.372,0,0,0-.855-.113H72.253Z" transform="translate(-23.203 0)" fill="#ffba00"/>
    <path id="パス_3969" data-name="パス 3969" d="M9.139,20.151,5.978,11.827H3.818v8.324H1.5V1.5H6.333a6.652,6.652,0,0,1,1.941.277,4.254,4.254,0,0,1,1.6.882A4.156,4.156,0,0,1,10.956,4.24a6.238,6.238,0,0,1,.4,2.345,6.012,6.012,0,0,1-.294,1.976A4.893,4.893,0,0,1,10.3,10a3.937,3.937,0,0,1-1.024.935,3.31,3.31,0,0,1-1.083.448l3.5,8.772ZM8.981,6.676a3.963,3.963,0,0,0-.263-1.56,2.729,2.729,0,0,0-.685-.978,2.373,2.373,0,0,0-.975-.516,4.335,4.335,0,0,0-1.106-.146H3.818V9.983H6a2.842,2.842,0,0,0,2.161-.859,3.417,3.417,0,0,0,.817-2.447" transform="translate(-0.512 -0.512)" fill="#ffba00"/>
    <path id="パス_3970" data-name="パス 3970" d="M11.182,20.627H8.626A.985.985,0,0,1,7.7,19.99L4.784,12.3H4.293v7.336a.988.988,0,0,1-.988.988H.987A.988.988,0,0,1,0,19.639V.988A.988.988,0,0,1,.987,0H5.821A7.688,7.688,0,0,1,8.049.319a5.267,5.267,0,0,1,1.966,1.088A5.161,5.161,0,0,1,11.36,3.355a7.248,7.248,0,0,1,.468,2.717,7.021,7.021,0,0,1-.348,2.3,5.878,5.878,0,0,1-.917,1.722,4.937,4.937,0,0,1-1.283,1.166c-.1.063-.205.122-.308.176L12.1,19.273a.987.987,0,0,1-.917,1.354M9.308,18.651h.416L6.761,11.233A.987.987,0,0,1,6.81,10.4a1.056,1.056,0,0,1,.114-.166,4.082,4.082,0,0,1-1,.211.989.989,0,0,1,.466.525Zm-7.333,0h.342V11.315a.989.989,0,0,1,.633-.923.987.987,0,0,1-.633-.922V2.964a.988.988,0,0,1,.988-.988H1.975ZM5.439,1.976A5.3,5.3,0,0,1,6.8,2.155a3.355,3.355,0,0,1,1.376.728,3.7,3.7,0,0,1,.938,1.328,4.853,4.853,0,0,1,.346,1.953A4.379,4.379,0,0,1,8.369,9.292a3.76,3.76,0,0,1-.639.538,2.7,2.7,0,0,0,.515-.252,2.985,2.985,0,0,0,.766-.705,3.916,3.916,0,0,0,.6-1.149,5.08,5.08,0,0,0,.238-1.651A5.311,5.311,0,0,0,9.529,4.1a3.2,3.2,0,0,0-.823-1.211A3.231,3.231,0,0,0,7.475,2.21a5.678,5.678,0,0,0-1.654-.234ZM4.293,8.483h1.2a1.86,1.86,0,0,0,1.445-.552,2.5,2.5,0,0,0,.545-1.767A3.028,3.028,0,0,0,7.3,5a1.763,1.763,0,0,0-.431-.629,1.383,1.383,0,0,0-.574-.3,3.363,3.363,0,0,0-.855-.113H4.293Z" transform="translate(0 0)" fill="#ffba00"/>
    <path id="パス_3971" data-name="パス 3971" d="M22.418,1.5h1.949L22.945,7.876H21.259Z" transform="translate(-7.258 -0.512)" fill="#ffba00"/>
    <path id="パス_3972" data-name="パス 3972" d="M22.433,8.351H20.746a.988.988,0,0,1-.971-1.165L20.934.811A.988.988,0,0,1,21.906,0h1.949a.988.988,0,0,1,.964,1.2L23.4,7.579a.988.988,0,0,1-.964.773" transform="translate(-6.746 0)" fill="#ffba00"/>
    <path id="パス_3973" data-name="パス 3973" d="M47.415,12.755,40.916,9v7.505Z" transform="translate(-13.969 -3.074)" fill="#55c5d9"/>
    <path id="パス_3974" data-name="パス 3974" d="M40.4,16.984A.988.988,0,0,1,39.416,16V8.491A.988.988,0,0,1,40.9,7.636l6.5,3.752a.987.987,0,0,1,0,1.71l-6.5,3.753a.994.994,0,0,1-.494.132m.988-6.782v4.083l3.536-2.041Z" transform="translate(-13.457 -2.562)" fill="#55c5d9"/>
  </g>
</svg>
