<?xml version="1.0" encoding="utf-8"?>
<!-- Generator: Adobe Illustrator 26.0.3, SVG Export Plug-In . SVG Version: 6.00 Build 0)  -->
<svg version="1.1" id="レイヤー_1" xmlns="http://www.w3.org/2000/svg" xmlns:xlink="http://www.w3.org/1999/xlink" x="0px"
	 y="0px" viewBox="0 0 18 18" style="enable-background:new 0 0 18 18;" xml:space="preserve">
<style type="text/css">
	.st0{fill:#55C5D9;}
	.st1{fill:none;}
</style>
<g id="グループ_8623" transform="translate(-24 -259)">
	<path id="パス_7949" class="st0" d="M41.2,266.2l-1.9-0.3c-0.1-0.4-0.3-0.7-0.5-1.1l1.1-1.5c0.2-0.3,0.2-0.7-0.1-1l-1.3-1.3
		c-0.3-0.3-0.7-0.3-1-0.1l-1.5,1.1c-0.4-0.2-0.7-0.3-1.1-0.5l-0.3-1.9c-0.1-0.4-0.4-0.7-0.8-0.7h-1.9c-0.4,0-0.7,0.3-0.8,0.7
		l-0.3,1.9c-0.4,0.1-0.7,0.3-1.1,0.5l-1.5-1.1c-0.3-0.2-0.7-0.2-1,0.1l-1.3,1.3c-0.3,0.3-0.3,0.7-0.1,1l1.1,1.5
		c-0.2,0.4-0.3,0.7-0.5,1.1l-1.9,0.3c-0.4,0.1-0.7,0.4-0.7,0.8v1.9c0,0.4,0.3,0.7,0.7,0.8l1.9,0.3c0.1,0.4,0.3,0.7,0.5,1.1l-1.1,1.5
		c-0.2,0.3-0.2,0.7,0.1,1l1.3,1.3c0.3,0.3,0.7,0.3,1,0.1l1.5-1.1c0.4,0.2,0.7,0.3,1.1,0.5l0.3,1.9c0.1,0.4,0.4,0.7,0.8,0.7H34
		c0.4,0,0.7-0.3,0.8-0.7l0.3-1.9c0.4-0.1,0.7-0.3,1.1-0.5l1.5,1.1c0.3,0.2,0.7,0.2,1-0.1l1.3-1.3c0.3-0.3,0.3-0.7,0.1-1l-1.1-1.5
		c0.2-0.4,0.3-0.7,0.5-1.1l1.9-0.3c0.4-0.1,0.7-0.4,0.7-0.8V267C41.9,266.6,41.6,266.3,41.2,266.2 M35.5,268c0,1.4-1.1,2.5-2.5,2.5
		c-1.4,0-2.5-1.1-2.5-2.5c0-1.4,1.1-2.5,2.5-2.5C34.4,265.5,35.5,266.6,35.5,268"/>
	<rect id="長方形_9063" x="24" y="259" class="st1" width="18" height="18"/>
</g>
</svg>
