<svg xmlns="http://www.w3.org/2000/svg" xmlns:xlink="http://www.w3.org/1999/xlink" width="41.969" height="21.522" viewBox="0 0 41.969 21.522">
  <defs>
    <clipPath id="clip-path">
      <rect id="長方形_5536" data-name="長方形 5536" width="19.436" height="18.763" fill="none"/>
    </clipPath>
  </defs>
  <g id="グループ_7620" data-name="グループ 7620" transform="translate(-272.467 -757.215)">
    <path id="パス_4012" data-name="パス 4012" d="M5.73,21.522a7.344,7.344,0,0,1-3.116-.684,6.455,6.455,0,0,1-2.4-1.853A.989.989,0,0,1,.222,17.75l1.4-1.713a1,1,0,0,1,.781-.363.986.986,0,0,1,.769.386,3.233,3.233,0,0,0,1.168.954,3.1,3.1,0,0,0,1.394.346,1.615,1.615,0,0,0,1.24-.489,2.264,2.264,0,0,0,.485-1.606,2.137,2.137,0,0,0-.153-.853,2.3,2.3,0,0,0-.464-.686,4.77,4.77,0,0,0-.8-.653,10.511,10.511,0,0,0-1.07-.612,11.923,11.923,0,0,1-1.554-.9,7.321,7.321,0,0,1-1.384-1.233A5.525,5.525,0,0,1,1.021,8.583a6.712,6.712,0,0,1-.363-2.3,7.02,7.02,0,0,1,.5-2.728A5.823,5.823,0,0,1,2.509,1.56,5.461,5.461,0,0,1,4.453.372,6.426,6.426,0,0,1,6.6,0,7.17,7.17,0,0,1,9.391.525a5.407,5.407,0,0,1,2.17,1.64.987.987,0,0,1-.019,1.251L10.12,5.1a1.022,1.022,0,0,1-.78.351.991.991,0,0,1-.762-.39,2.216,2.216,0,0,0-1.9-.927,1.971,1.971,0,0,0-.661.116,1.425,1.425,0,0,0-.524.332,1.817,1.817,0,0,0-.4.625A2.741,2.741,0,0,0,4.925,6.23a2.109,2.109,0,0,0,.142.83,2.254,2.254,0,0,0,.422.641,3.879,3.879,0,0,0,.7.587,9.4,9.4,0,0,0,.979.561,16.032,16.032,0,0,1,1.544.884A7.682,7.682,0,0,1,10.2,10.989a6.073,6.073,0,0,1,1.119,1.777,6.158,6.158,0,0,1,.431,2.368,7.258,7.258,0,0,1-.462,2.637A5.948,5.948,0,0,1,10,19.8a5.573,5.573,0,0,1-1.932,1.279,6.278,6.278,0,0,1-2.343.439M2.3,18.324a4.955,4.955,0,0,0,1.141.722,5.391,5.391,0,0,0,2.285.5,4.32,4.32,0,0,0,1.61-.3,3.589,3.589,0,0,0,1.255-.828,4.015,4.015,0,0,0,.852-1.367,5.284,5.284,0,0,0,.327-1.92,4.211,4.211,0,0,0-.28-1.61,4.086,4.086,0,0,0-.752-1.2,5.643,5.643,0,0,0-1.1-.932,13.985,13.985,0,0,0-1.353-.775,11.5,11.5,0,0,1-1.182-.678A5.8,5.8,0,0,1,4.046,9.05a4.207,4.207,0,0,1-.79-1.2A4.044,4.044,0,0,1,2.95,6.23a4.691,4.691,0,0,1,.311-1.771,3.782,3.782,0,0,1,.86-1.3,3.413,3.413,0,0,1,1.241-.775A3.975,3.975,0,0,1,6.678,2.16,4.246,4.246,0,0,1,9.3,3.01l.151-.18a3.544,3.544,0,0,0-.825-.484A5.234,5.234,0,0,0,6.6,1.976a4.471,4.471,0,0,0-1.488.259A3.507,3.507,0,0,0,3.865,3a3.846,3.846,0,0,0-.887,1.324,5.075,5.075,0,0,0-.344,1.961,4.776,4.776,0,0,0,.243,1.623,3.556,3.556,0,0,0,.647,1.127,5.37,5.37,0,0,0,1.013.9,9.93,9.93,0,0,0,1.3.754,12.741,12.741,0,0,1,1.286.735,6.782,6.782,0,0,1,1.127.929,4.3,4.3,0,0,1,.854,1.266,4.079,4.079,0,0,1,.321,1.648A4.126,4.126,0,0,1,8.39,18.244a3.562,3.562,0,0,1-2.66,1.092,5.092,5.092,0,0,1-2.268-.551,5.305,5.305,0,0,1-1.008-.644Z" transform="translate(272.467 757.215)" fill="#ffba00"/>
    <g id="グループ_6290" data-name="グループ 6290" transform="translate(295 759.974)">
      <g id="グループ_6288" data-name="グループ 6288" transform="translate(0 0)">
        <path id="パス_5499" data-name="パス 5499" d="M12.079,0H2.1a1.748,1.748,0,0,0,0,3.5h9.982a3.861,3.861,0,0,1,0,7.721H7.514V8.569A1.4,1.4,0,0,0,5.161,7.546l-4.717,4.4a1.4,1.4,0,0,0,0,2.046l4.717,4.4a1.4,1.4,0,0,0,2.353-1.023V14.715h4.564A7.358,7.358,0,0,0,12.079,0" transform="translate(0 0)" fill="#55c3d7"/>
      </g>
    </g>
  </g>
</svg>
