<svg xmlns="http://www.w3.org/2000/svg" width="40" height="40" viewBox="0 0 40 40">
  <g id="グループ_2090" data-name="グループ 2090" transform="translate(-1280 -275.172)">
    <g id="楕円形_53" data-name="楕円形 53" transform="translate(1282 277.172)" fill="#fff" stroke="#b4b4b4" stroke-width="2">
      <circle cx="18" cy="18" r="18" stroke="none"/>
      <circle cx="18" cy="18" r="19" fill="none"/>
    </g>
    <path id="パス_4769" data-name="パス 4769" d="M29.452,37.512a1.3,1.3,0,0,0-1.621.854,2.068,2.068,0,0,1-3.8,0,1.3,1.3,0,0,0-2.385-.219,1.287,1.287,0,0,0-.09.988,4.651,4.651,0,0,0,8.75,0,1.3,1.3,0,0,0-.854-1.623" transform="translate(1267.442 252.015)" fill="#4d4d4d"/>
    <path id="パス_4770" data-name="パス 4770" d="M69.516,37.511a1.3,1.3,0,0,0-1.624.852,2.068,2.068,0,0,1-3.8,0,1.3,1.3,0,0,0-2.385-.219,1.287,1.287,0,0,0-.09.988,4.651,4.651,0,0,0,8.75,0,1.3,1.3,0,0,0-.852-1.623" transform="translate(1240.312 252.018)" fill="#4d4d4d"/>
    <path id="パス_4771" data-name="パス 4771" d="M47.6,68.835H38.328a1.852,1.852,0,1,0,0,3.7h4.644a.648.648,0,0,1,.648.648v.955a1.3,1.3,0,0,0,2.593,0v-.955a.648.648,0,0,1,.648-.648H47.6a1.852,1.852,0,1,0,0-3.7" transform="translate(1257.033 230.778)" fill="#ec6b44"/>
  </g>
</svg>
