<?xml version="1.0" encoding="utf-8"?>
<!-- Generator: Adobe Illustrator 26.0.3, SVG Export Plug-In . SVG Version: 6.00 Build 0)  -->
<svg version="1.1" id="レイヤー_1" xmlns="http://www.w3.org/2000/svg" xmlns:xlink="http://www.w3.org/1999/xlink" x="0px"
	 y="0px" viewBox="0 0 42 21.5" style="enable-background:new 0 0 42 21.5;" xml:space="preserve">
<style type="text/css">
	.st0{fill:#FFBA00;}
	.st1{clip-path:url(#SVGID_00000134242967823619503980000018355920730925780355_);}
	.st2{fill:#55C3D7;}
</style>
<g id="グループ_7799" transform="translate(-272.467 -804.688)">
	<path id="パス_4011" class="st0" d="M283.2,819.8c0,0.8-0.1,1.6-0.4,2.3c-0.2,0.6-0.6,1.2-1.1,1.7c-0.5,0.5-1,0.8-1.6,1.1
		c-0.6,0.2-1.3,0.4-2,0.4c-0.9,0-1.9-0.2-2.7-0.6c-0.8-0.4-1.5-0.9-2-1.6l1.4-1.7c0.4,0.5,0.9,0.9,1.5,1.2c0.6,0.3,1.2,0.4,1.8,0.4
		c0.7,0,1.4-0.3,1.9-0.8c0.5-0.6,0.8-1.5,0.8-2.3c0-0.4-0.1-0.9-0.2-1.3c-0.2-0.4-0.4-0.7-0.7-1c-0.3-0.3-0.6-0.6-1-0.8
		c-0.4-0.2-0.8-0.5-1.2-0.7c-0.5-0.2-1-0.5-1.4-0.8c-0.4-0.3-0.8-0.7-1.2-1.1c-0.4-0.4-0.6-0.9-0.8-1.4c-0.2-0.6-0.3-1.3-0.3-2
		c0-0.8,0.1-1.6,0.4-2.3c0.3-0.6,0.6-1.2,1.1-1.7c0.5-0.4,1-0.8,1.6-1c0.6-0.2,1.2-0.3,1.8-0.3c0.8,0,1.6,0.1,2.4,0.4
		c0.7,0.3,1.3,0.8,1.8,1.3l-1.4,1.7c-0.6-0.9-1.6-1.3-2.7-1.3c-0.3,0-0.7,0.1-1,0.2c-0.3,0.1-0.6,0.3-0.9,0.6
		c-0.3,0.3-0.5,0.6-0.6,1c-0.2,0.4-0.2,0.9-0.2,1.4c0,0.4,0.1,0.8,0.2,1.2c0.1,0.3,0.4,0.7,0.6,0.9c0.3,0.3,0.6,0.5,0.9,0.7
		c0.3,0.2,0.7,0.4,1.1,0.6c0.5,0.2,1,0.5,1.4,0.8c0.5,0.3,0.9,0.7,1.3,1.1c0.4,0.4,0.7,0.9,0.9,1.5
		C283.1,818.5,283.2,819.1,283.2,819.8"/>
	<g id="グループ_7620" transform="translate(0 47.473)">
		<path id="パス_4012" class="st0" d="M278.2,778.7c-1.1,0-2.1-0.2-3.1-0.7c-0.9-0.4-1.8-1.1-2.4-1.9c-0.3-0.4-0.3-0.9,0-1.2
			l1.4-1.7c0.2-0.2,0.5-0.4,0.8-0.4c0.3,0,0.6,0.1,0.8,0.4c0.3,0.4,0.7,0.7,1.2,1c0.4,0.2,0.9,0.3,1.4,0.3c0.5,0,0.9-0.2,1.2-0.5
			c0.4-0.5,0.5-1,0.5-1.6c0-0.3,0-0.6-0.2-0.9c-0.1-0.3-0.3-0.5-0.5-0.7c-0.2-0.2-0.5-0.5-0.8-0.7c-0.3-0.2-0.7-0.4-1.1-0.6
			c-0.5-0.3-1.1-0.6-1.6-0.9c-0.5-0.4-1-0.8-1.4-1.2c-0.4-0.5-0.8-1.1-1-1.7c-0.3-0.7-0.4-1.5-0.4-2.3c0-0.9,0.2-1.9,0.5-2.7
			c0.3-0.8,0.8-1.4,1.4-2c0.6-0.5,1.2-0.9,1.9-1.2c0.7-0.2,1.4-0.4,2.1-0.4c1,0,1.9,0.2,2.8,0.5c0.9,0.4,1.6,0.9,2.2,1.6
			c0.3,0.4,0.3,0.9,0,1.3l-1.4,1.7c-0.2,0.2-0.5,0.4-0.8,0.4c-0.3,0-0.6-0.2-0.8-0.4c-0.4-0.6-1.2-1-1.9-0.9c-0.2,0-0.4,0-0.7,0.1
			c-0.2,0.1-0.4,0.2-0.5,0.3c-0.2,0.2-0.3,0.4-0.4,0.6c-0.1,0.3-0.2,0.7-0.2,1c0,0.3,0,0.6,0.1,0.8c0.1,0.2,0.2,0.5,0.4,0.6
			c0.2,0.2,0.4,0.4,0.7,0.6c0.3,0.2,0.6,0.4,1,0.6c0.5,0.3,1,0.6,1.5,0.9c0.5,0.4,1,0.8,1.5,1.3c0.5,0.5,0.9,1.1,1.1,1.8
			c0.3,0.8,0.4,1.6,0.4,2.4c0,0.9-0.1,1.8-0.5,2.6c-0.3,0.8-0.7,1.4-1.3,2c-0.5,0.6-1.2,1-1.9,1.3
			C279.8,778.6,279,778.7,278.2,778.7 M274.8,775.5c0.3,0.3,0.7,0.5,1.1,0.7c0.7,0.3,1.5,0.5,2.3,0.5c0.6,0,1.1-0.1,1.6-0.3
			c0.5-0.2,0.9-0.5,1.3-0.8c0.4-0.4,0.7-0.9,0.9-1.4c0.2-0.6,0.3-1.3,0.3-1.9c0-0.5-0.1-1.1-0.3-1.6c-0.2-0.4-0.4-0.8-0.8-1.2
			c-0.3-0.4-0.7-0.7-1.1-0.9c-0.4-0.3-0.9-0.5-1.4-0.8c-0.4-0.2-0.8-0.4-1.2-0.7c-0.4-0.3-0.7-0.5-1.1-0.9c-0.3-0.4-0.6-0.8-0.8-1.2
			c-0.2-0.5-0.3-1.1-0.3-1.6c0-0.6,0.1-1.2,0.3-1.8c0.2-0.5,0.5-0.9,0.9-1.3c0.4-0.3,0.8-0.6,1.2-0.8c0.4-0.1,0.9-0.2,1.3-0.2
			c0.9,0,1.9,0.3,2.6,0.9l0.2-0.2c-0.3-0.2-0.5-0.4-0.8-0.5c-0.6-0.3-1.3-0.4-2-0.4c-0.5,0-1,0.1-1.5,0.3c-0.5,0.2-0.9,0.4-1.2,0.8
			c-0.4,0.4-0.7,0.8-0.9,1.3c-0.2,0.6-0.4,1.3-0.3,2c0,0.6,0.1,1.1,0.2,1.6c0.1,0.4,0.4,0.8,0.6,1.1c0.3,0.3,0.6,0.6,1,0.9
			c0.4,0.3,0.8,0.5,1.3,0.8c0.4,0.2,0.9,0.5,1.3,0.7c0.4,0.3,0.8,0.6,1.1,0.9c0.4,0.4,0.6,0.8,0.9,1.3c0.2,0.5,0.3,1.1,0.3,1.6
			c0.1,1.1-0.3,2.2-1,3c-0.7,0.7-1.7,1.1-2.7,1.1c-0.8,0-1.6-0.2-2.3-0.6c-0.4-0.2-0.7-0.4-1-0.6L274.8,775.5z"/>
		<g id="グループ_6290" transform="translate(295 759.974)">
			<g>
				<defs>
					<rect id="SVGID_1_" x="0" y="0" width="19.4" height="18.8"/>
				</defs>
				<clipPath id="SVGID_00000066503108025828623840000002193003624304080306_">
					<use xlink:href="#SVGID_1_"  style="overflow:visible;"/>
				</clipPath>
				
					<g id="グループ_6288" transform="translate(0 0)" style="clip-path:url(#SVGID_00000066503108025828623840000002193003624304080306_);">
					<path id="パス_5499" class="st2" d="M12.1,0h-10c-1,0-1.8,0.8-1.8,1.8s0.8,1.8,1.8,1.8h10c2.1,0,3.8,1.8,3.8,3.9
						c0,2.1-1.7,3.8-3.8,3.8H7.5V8.6c0-0.8-0.6-1.4-1.4-1.4c-0.4,0-0.7,0.1-1,0.4l-4.7,4.4c-0.6,0.5-0.6,1.4-0.1,2c0,0,0,0,0.1,0.1
						l4.7,4.4c0.6,0.5,1.5,0.5,2-0.1c0.2-0.3,0.4-0.6,0.4-1v-2.7h4.6c4.1,0,7.3-3.4,7.3-7.4C19.3,3.3,16.1,0,12.1,0"/>
				</g>
			</g>
		</g>
	</g>
</g>
</svg>
