<?xml version="1.0" encoding="utf-8"?>
<!-- Generator: Adobe Illustrator 26.0.3, SVG Export Plug-In . SVG Version: 6.00 Build 0)  -->
<svg version="1.1" id="レイヤー_1" xmlns="http://www.w3.org/2000/svg" xmlns:xlink="http://www.w3.org/1999/xlink" x="0px"
	 y="0px" viewBox="0 0 18 18" style="enable-background:new 0 0 18 18;" xml:space="preserve">
<style type="text/css">
	.st0{fill:#55C5D9;}
	.st1{fill:none;}
</style>
<g id="グループ_8621" transform="translate(-24 -130)">
	<path id="パス_7965" class="st0" d="M31.8,131.9c-0.9-0.9-2.1-1.3-3.4-1.2c-0.4,0.1-0.7,0.4-0.7,0.9c0,0.2,0.1,0.3,0.2,0.5
		l1.8,1.8l-1.8,1.8l-1.8-1.8c-0.3-0.3-0.8-0.3-1.1,0c-0.1,0.1-0.2,0.3-0.2,0.5c-0.3,2.2,1.3,4.3,3.6,4.6c0.5,0.1,1.1,0,1.6-0.1
		l8.1,8.1c0.4,0.4,1.1,0.4,1.5,0l1.3-1.3c0.4-0.4,0.4-1.1,0-1.5c0,0,0,0,0,0l-8.1-8.1C33.2,134.5,32.8,132.9,31.8,131.9"/>
	<rect id="長方形_9061" x="24" y="130" class="st1" width="18" height="18"/>
</g>
</svg>
