<svg xmlns="http://www.w3.org/2000/svg" xmlns:xlink="http://www.w3.org/1999/xlink" width="12.318" height="16" viewBox="0 0 12.318 16">
  <defs>
    <clipPath id="clip-path">
      <rect id="長方形_5769" data-name="長方形 5769" width="12.318" height="16" transform="translate(0 0)" fill="#464646"/>
    </clipPath>
  </defs>
  <g id="グループ_6366" data-name="グループ 6366" clip-path="url(#clip-path)">
    <path id="パス_5600" data-name="パス 5600" d="M10.415,46.134H1.9a1.905,1.905,0,0,1-1.9-1.9v-.944a1.905,1.905,0,0,1,1.9-1.9h8.512a1.905,1.905,0,0,1,1.9,1.9v.944a1.905,1.905,0,0,1-1.9,1.9M1.9,43.015a.276.276,0,0,0-.272.272v.944A.276.276,0,0,0,1.9,44.5h8.512a.276.276,0,0,0,.272-.272v-.944a.276.276,0,0,0-.272-.272Z" transform="translate(0 -30.133)" fill="#55c5d9"/>
    <path id="パス_5601" data-name="パス 5601" d="M11.122,19.89h0a.815.815,0,0,1-.577-.239l-3.49-3.49a.815.815,0,1,1,1.153-1.153l2.913,2.913,2.914-2.913a.816.816,0,0,1,1.153,1.154l-3.49,3.49a.815.815,0,0,1-.577.239" transform="translate(-4.964 -10.754)" fill="#ffba00"/>
    <path id="パス_5602" data-name="パス 5602" d="M20.469,9.136a.816.816,0,0,1-.816-.816V.816a.816.816,0,1,1,1.631,0V8.321a.816.816,0,0,1-.816.816" transform="translate(-14.31 0)" fill="#ffba00"/>
  </g>
</svg>
