<?xml version="1.0" encoding="utf-8"?>
<!-- Generator: Adobe Illustrator 26.0.3, SVG Export Plug-In . SVG Version: 6.00 Build 0)  -->
<svg version="1.1" id="レイヤー_1" xmlns="http://www.w3.org/2000/svg" xmlns:xlink="http://www.w3.org/1999/xlink" x="0px" y="0px" viewBox="0 0 18 18" style="enable-background:new 0 0 18 18;" xml:space="preserve">
	<style type="text/css">
		.st1{fill:none;}
	</style>
	<g id="グループ_8620" transform="translate(-24 -91)">
		<path id="パス_7945" fill="currentColor" d="M33,91.1c-4.9,0-8.9,4-8.9,8.9s4,8.9,8.9,8.9s8.9-4,8.9-8.9C41.9,95.1,37.9,91.1,33,91.1
		 M33,107.3c-4.1,0-7.3-3.3-7.3-7.3c0-4.1,3.3-7.3,7.3-7.3c4.1,0,7.3,3.3,7.3,7.3C40.3,104,37,107.3,33,107.3" />
		<path id="パス_7946" fill="currentColor" d="M31.8,98.3c0-0.8-0.7-1.5-1.5-1.5c-0.8,0-1.5,0.7-1.5,1.5c0,0.8,0.7,1.5,1.5,1.5c0,0,0,0,0,0
		C31.2,99.8,31.8,99.1,31.8,98.3" />
		<path id="パス_7947" fill="currentColor" d="M35.6,96.7c-0.8,0-1.5,0.7-1.5,1.5s0.7,1.5,1.5,1.5s1.5-0.7,1.5-1.5l0,0
		C37.2,97.4,36.5,96.7,35.6,96.7" />
		<path id="パス_7948" fill="currentColor" d="M35.3,101.9c-1.2,1.3-3.2,1.4-4.5,0.2c-0.1-0.1-0.1-0.1-0.2-0.2c-0.3-0.3-0.8-0.3-1.1,0
		s-0.3,0.8,0,1.1c1.8,1.9,4.7,2,6.7,0.3c0.1-0.1,0.2-0.2,0.3-0.3c0.3-0.3,0.3-0.8,0-1.1S35.6,101.6,35.3,101.9" />
		<rect id="長方形_9060" x="24" y="91" class="st1" width="18" height="18" />
	</g>
</svg>