<svg id="グループ_6199" data-name="グループ 6199" xmlns="http://www.w3.org/2000/svg" xmlns:xlink="http://www.w3.org/1999/xlink" width="62.119" height="21.19" viewBox="0 0 62.119 21.19">
  <defs>
    <clipPath id="clip-path">
      <rect id="長方形_3346" data-name="長方形 3346" width="62.119" height="21.191" fill="none"/>
    </clipPath>
  </defs>
  <path id="パス_3947" data-name="パス 3947" d="M2.923,14.979v3.6H5.973v1.233H2.923v5.057H1.5V13.683H6.21v1.3Z" transform="translate(-0.512 -4.672)" fill="#ffba00"/>
  <g id="グループ_1768" data-name="グループ 1768" transform="translate(0 0)">
    <g id="グループ_1767" data-name="グループ 1767">
      <path id="パス_3948" data-name="パス 3948" d="M2.41,25.35H.988A.988.988,0,0,1,0,24.362V13.172a.988.988,0,0,1,.988-.988H5.7a.988.988,0,0,1,.988.988v1.3a.988.988,0,0,1-.988.988H3.4v1.628H5.461a.988.988,0,0,1,.988.988V19.3a.988.988,0,0,1-.988.988H3.4v4.07a.988.988,0,0,1-.988.988" transform="translate(0 -4.16)" fill="#ffba00"/>
      <path id="パス_3949" data-name="パス 3949" d="M18.934,20.671V4.733L15.615,7.262,14.507,5.418l4.557-3.4h2.187V20.671Z" transform="translate(-4.953 -0.689)" fill="#ffba00"/>
      <path id="パス_3950" data-name="パス 3950" d="M20.74,21.147H18.422a.988.988,0,0,1-.988-.988V6.215L15.7,7.536a.988.988,0,0,1-1.445-.277L13.149,5.415a.987.987,0,0,1,.257-1.3l4.557-3.4a.985.985,0,0,1,.59-.2H20.74a.989.989,0,0,1,.988.988V20.159a.989.989,0,0,1-.988.988m-1.33-1.976h.342V2.5h-.871L15.3,5.164l.078.132,2.441-1.86a.989.989,0,0,1,1.587.786Z" transform="translate(-4.441 -0.177)" fill="#ffba00"/>
      <path id="パス_3951" data-name="パス 3951" d="M65.557,14.979v3.6h3.051v1.233H65.557v5.057H64.135V13.683h4.71v1.3Z" transform="translate(-21.897 -4.672)" fill="#ffba00"/>
      <path id="パス_3952" data-name="パス 3952" d="M65.045,25.35H63.623a.988.988,0,0,1-.988-.988V13.172a.988.988,0,0,1,.988-.988h4.71a.988.988,0,0,1,.988.988v1.3a.988.988,0,0,1-.988.988h-2.3v1.628H68.1a.988.988,0,0,1,.988.988V19.3a.988.988,0,0,1-.988.988H66.033v4.07a.988.988,0,0,1-.988.988" transform="translate(-21.385 -4.16)" fill="#ffba00"/>
      <path id="パス_3953" data-name="パス 3953" d="M87.81,6.532A6.007,6.007,0,0,1,87.586,8.2a8.566,8.566,0,0,1-.606,1.528,13.613,13.613,0,0,1-.9,1.5q-.515.75-1.12,1.567l-4.11,5.61h6.718v2.081H78.247V18.307l5.216-7.086a12.85,12.85,0,0,0,1.423-2.344,5.351,5.351,0,0,0,.5-2.213,4.026,4.026,0,0,0-.58-2.186,1.967,1.967,0,0,0-1.791-.922,2.29,2.29,0,0,0-1.739.724,3.819,3.819,0,0,0-.9,2.094l-2.24-.237a5.658,5.658,0,0,1,1.687-3.463A5.325,5.325,0,0,1,85.176,1.9a4.147,4.147,0,0,1,1.449,1.067,4.614,4.614,0,0,1,.882,1.594,6.289,6.289,0,0,1,.3,1.976" transform="translate(-26.679 -0.512)" fill="#ffba00"/>
      <path id="パス_3954" data-name="パス 3954" d="M87.062,20.969H77.736a.988.988,0,0,1-.988-.988V17.795a.991.991,0,0,1,.192-.586l5.216-7.086a11.963,11.963,0,0,0,1.318-2.165,4.388,4.388,0,0,0,.412-1.806,3.033,3.033,0,0,0-.429-1.661.979.979,0,0,0-.954-.46,1.315,1.315,0,0,0-1.021.415,2.9,2.9,0,0,0-.636,1.565.993.993,0,0,1-1.08.832l-2.239-.237a.988.988,0,0,1-.873-1.139A6.643,6.643,0,0,1,78.66,1.422,6.31,6.31,0,0,1,85.073.483,5.162,5.162,0,0,1,86.861,1.8a5.623,5.623,0,0,1,1.073,1.931,7.292,7.292,0,0,1,.353,2.285,7.011,7.011,0,0,1-.263,1.946,9.713,9.713,0,0,1-.674,1.7,14.638,14.638,0,0,1-.96,1.61q-.526.767-1.143,1.6l-2.954,4.034h4.769a.988.988,0,0,1,.988.988v2.081a.988.988,0,0,1-.988.988m-8.338-1.976h7.35v-.105h-5.73a.988.988,0,0,1-.8-1.572l4.11-5.61c.4-.539.765-1.051,1.1-1.542a12.631,12.631,0,0,0,.83-1.392,7.617,7.617,0,0,0,.537-1.353,5.051,5.051,0,0,0,.186-1.4,5.346,5.346,0,0,0-.254-1.668A3.658,3.658,0,0,0,85.365,3.1a3.155,3.155,0,0,0-1.11-.813,4.349,4.349,0,0,0-4.281.616A4.078,4.078,0,0,0,78.844,4.76l.258.027a4.237,4.237,0,0,1,.946-1.7A3.294,3.294,0,0,1,82.5,2.055a2.944,2.944,0,0,1,2.627,1.384,5.011,5.011,0,0,1,.732,2.713,6.348,6.348,0,0,1-.588,2.62A13.94,13.94,0,0,1,83.744,11.3l-5.02,6.82Z" transform="translate(-26.167 0)" fill="#ffba00"/>
      <path id="パス_3955" data-name="パス 3955" d="M47.987,13.275l-6.5-3.753v7.505Z" transform="translate(-14.164 -3.251)" fill="#55c5d9"/>
      <path id="パス_3956" data-name="パス 3956" d="M40.975,17.5a.988.988,0,0,1-.988-.988V9.01a.988.988,0,0,1,1.482-.855l6.5,3.753a.987.987,0,0,1,0,1.71l-6.5,3.753a.994.994,0,0,1-.494.132m.988-6.783v4.084L45.5,12.763Z" transform="translate(-13.652 -2.739)" fill="#55c5d9"/>
    </g>
  </g>
</svg>
