<svg xmlns="http://www.w3.org/2000/svg" xmlns:xlink="http://www.w3.org/1999/xlink" width="49.996" height="46.804" viewBox="0 0 49.996 46.804">
  <defs>
    <clipPath id="clip-path">
      <rect id="長方形_4810" data-name="長方形 4810" width="49.996" height="46.804" transform="translate(0 0)" fill="none"/>
    </clipPath>
  </defs>
  <g id="グループ_6846" data-name="グループ 6846" transform="translate(0 0)">
    <g id="グループ_2883" data-name="グループ 2883" transform="translate(0 0)" clip-path="url(#clip-path)">
      <path id="パス_5105" data-name="パス 5105" d="M18.266,73.678A5.935,5.935,0,1,1,24.2,67.744a5.941,5.941,0,0,1-5.935,5.935m0-8.478a2.543,2.543,0,1,0,2.543,2.543A2.547,2.547,0,0,0,18.266,65.2" transform="translate(-5.361 -26.874)" fill="#ffb800"/>
      <path id="パス_5106" data-name="パス 5106" d="M54.463,73.678A5.935,5.935,0,1,1,60.4,67.744a5.941,5.941,0,0,1-5.935,5.935m0-8.478a2.543,2.543,0,1,0,2.543,2.543A2.547,2.547,0,0,0,54.463,65.2" transform="translate(-21.1 -26.874)" fill="#ffb800"/>
      <path id="パス_5107" data-name="パス 5107" d="M42.609,43.552H3.956A3.962,3.962,0,0,1,0,39.6V26.982a11.612,11.612,0,0,1,1.355-5.066l4.079-7.087a6.023,6.023,0,0,1,4.859-2.809h6.789c2.181,0,3.391,1.775,3.391,3.956v14.3a.573.573,0,0,0,.565.565H42.609c2.181,0,3.956,1.21,3.956,3.391V39.6a3.962,3.962,0,0,1-3.956,3.956M10.292,15.411a2.7,2.7,0,0,0-1.919,1.11l-4.08,7.087a8.414,8.414,0,0,0-.9,3.374V39.6a.573.573,0,0,0,.565.565H42.609a.573.573,0,0,0,.565-.565V34.23a.573.573,0,0,0-.565-.565H21.6a3.961,3.961,0,0,1-3.956-3.956V15.976a.573.573,0,0,0-.565-.565ZM6.9,15.675h0Z" transform="translate(0 -5.226)" fill="#ffb800"/>
      <path id="パス_5108" data-name="パス 5108" d="M60.441,0H31.483a2.267,2.267,0,0,0-2.261,2.261V27.308a2.267,2.267,0,0,0,2.261,2.261H60.441A2.267,2.267,0,0,0,62.7,27.308V2.261A2.267,2.267,0,0,0,60.441,0M43.066,10.906l-2.754,3.668h1.38a.623.623,0,0,1,.623.623v.814a.623.623,0,0,1-.623.623H39.457v1.537h2.235a.623.623,0,0,1,.623.623v.8a.623.623,0,0,1-.623.623H39.457v2.833a.624.624,0,0,1-.623.623H37.52a.624.624,0,0,1-.623-.623V20.216H34.7a.623.623,0,0,1-.623-.623v-.8a.623.623,0,0,1,.623-.623h2.2V16.635H34.7a.623.623,0,0,1-.623-.623V15.2a.623.623,0,0,1,.623-.623h1.411l-2.595-3.682a.623.623,0,0,1,.552-.913h1.479a.624.624,0,0,1,.562.354L38.083,13.2l.181.287.209-.323,2.047-2.84a.624.624,0,0,1,.558-.345h1.445a.623.623,0,0,1,.544.928m7.426,12.971c-2.943,0-6.379-2.369-6.379-9.049,0-8.7,5.479-9.137,6.577-9.137,3.067,0,6.344,2.354,6.344,8.96,0,8.561-5.007,9.226-6.542,9.226" transform="translate(-12.706 0)" fill="#55c3d7"/>
      <path id="パス_5109" data-name="パス 5109" d="M64.736,16.4c-.959,0-3.187.541-3.187,5.558,0,3.378,1.151,5.476,3,5.476,2.034,0,3.154-2,3.154-5.64,0-1.622-.289-5.394-2.971-5.394" transform="translate(-26.761 -7.129)" fill="#55c3d7"/>
    </g>
  </g>
</svg>
