<svg xmlns="http://www.w3.org/2000/svg" width="19.998" height="19.055" viewBox="0 0 19.998 19.055">
  <path id="パス_5965" data-name="パス 5965" d="M20,8.114C20,3.64,15.513,0,10,0S0,3.64,0,8.114c0,4.011,3.557,7.37,8.362,8.006.326.07.769.215.881.493a2.055,2.055,0,0,1,.032.9s-.117.706-.143.856c-.044.253-.2.989.866.539a32.284,32.284,0,0,0,7.856-5.805h0A7.22,7.22,0,0,0,20,8.114M6.471,10.507a.191.191,0,0,1-.191.191H3.471a.191.191,0,0,1-.191-.191v0h0V6.143a.191.191,0,0,1,.191-.191H4.18a.191.191,0,0,1,.191.191V9.607H6.28a.192.192,0,0,1,.191.191Zm1.691,0a.191.191,0,0,1-.191.191H7.262a.191.191,0,0,1-.191-.191V6.143a.191.191,0,0,1,.191-.191h.709a.191.191,0,0,1,.191.191Zm4.828,0a.191.191,0,0,1-.191.191h-.705a.194.194,0,0,1-.05-.007h0l-.013,0-.006,0-.009,0-.009,0-.006,0-.012-.007,0,0a.192.192,0,0,1-.049-.048l-2-2.7v2.591a.191.191,0,0,1-.191.191H9.035a.191.191,0,0,1-.191-.191V6.143a.191.191,0,0,1,.191-.191h.74l.011,0,.007,0,.012,0,.006,0,.011,0,.006,0,.011.006.006,0,.01.007.005,0L9.871,6l0,0,.011.012h0a.182.182,0,0,1,.015.02l2,2.7V6.143a.191.191,0,0,1,.191-.191H12.8a.191.191,0,0,1,.191.191Zm3.873-3.655a.191.191,0,0,1-.191.191H14.762V7.78h1.909a.192.192,0,0,1,.191.191V8.68a.191.191,0,0,1-.191.191H14.762v.736h1.909a.192.192,0,0,1,.191.191v.709a.191.191,0,0,1-.191.191H13.862a.191.191,0,0,1-.191-.191v0h0V6.148h0v0a.191.191,0,0,1,.191-.191h2.809a.191.191,0,0,1,.191.191Z" fill="#06c755"/>
</svg>
