<?xml version="1.0" encoding="utf-8"?>
<!-- Generator: Adobe Illustrator 26.2.1, SVG Export Plug-In . SVG Version: 6.00 Build 0)  -->
<svg version="1.1" id="グループ_7772" xmlns="http://www.w3.org/2000/svg" xmlns:xlink="http://www.w3.org/1999/xlink" x="0px"
	 y="0px" viewBox="0 0 12.9 12.9" style="enable-background:new 0 0 12.9 12.9;" xml:space="preserve">
<style type="text/css">
	.st0{clip-path:url(#SVGID_00000181079178337843887640000008649516654517595264_);}
	.st1{fill:#FFBA00;}
</style>
<g>
	<defs>
		<rect id="SVGID_1_" width="12.9" height="12.9"/>
	</defs>
	<clipPath id="SVGID_00000077286200841736636710000006826430116232417935_">
		<use xlink:href="#SVGID_1_"  style="overflow:visible;"/>
	</clipPath>
	<g id="グループ_7052" style="clip-path:url(#SVGID_00000077286200841736636710000006826430116232417935_);">
		<path id="パス_6386" class="st1" d="M10,8.2C9.7,8.2,9.4,8,9.4,7.6c0-0.2,0.1-0.3,0.2-0.4l1.3-1.3C12,4.8,12,3.1,10.9,2
			C9.8,0.9,8.1,0.9,7,2L5.7,3.3c-0.2,0.2-0.6,0.2-0.8,0C4.6,3,4.6,2.6,4.8,2.4l1.3-1.3c1.6-1.5,4.1-1.5,5.6,0c1.6,1.6,1.6,4.1,0,5.6
			l-1.3,1.3C10.4,8.2,10.2,8.2,10,8.2"/>
		<path id="パス_6387" class="st1" d="M4,12.9c-2.2,0-4-1.8-4-4c0-1.1,0.4-2.1,1.2-2.8l1.3-1.3c0.2-0.2,0.6-0.3,0.8,0
			c0.2,0.2,0.3,0.6,0,0.8c0,0,0,0,0,0L2,6.9C0.9,8,0.9,9.8,2,10.9c1.1,1.1,2.8,1.1,3.9,0l1.3-1.3c0.2-0.2,0.6-0.2,0.8,0
			c0.2,0.2,0.2,0.6,0,0.8l-1.3,1.3C6.1,12.5,5,12.9,4,12.9"/>
		<path id="パス_6388" class="st1" d="M4.6,8.9C4.3,8.9,4,8.6,4,8.3c0-0.2,0.1-0.3,0.2-0.4l3.7-3.7c0.2-0.2,0.6-0.2,0.8,0
			c0.2,0.2,0.2,0.6,0,0.8L5,8.7C4.9,8.8,4.8,8.9,4.6,8.9"/>
	</g>
</g>
</svg>
