<?xml version="1.0" encoding="utf-8"?>
<!-- Generator: Adobe Illustrator 26.0.3, SVG Export Plug-In . SVG Version: 6.00 Build 0)  -->
<svg version="1.1" id="レイヤー_1" xmlns="http://www.w3.org/2000/svg" xmlns:xlink="http://www.w3.org/1999/xlink" x="0px"
	 y="0px" viewBox="0 0 41.4 20.6" style="enable-background:new 0 0 41.4 20.6;" xml:space="preserve">
<style type="text/css">
	.st0{clip-path:url(#SVGID_00000138540674368366508660000006148828349188507278_);}
	.st1{fill:#55C5D9;}
	.st2{clip-path:url(#SVGID_00000019678322445008678640000005248601730112594840_);}
	.st3{fill:#FFB800;}
</style>
<g id="グループ_8146" transform="translate(-866.5 -729.685)">
	<g id="グループ_6202" transform="translate(866.5 729.688)">
		<g>
			<defs>
				<rect id="SVGID_1_" y="0" width="41.4" height="20.6"/>
			</defs>
			<clipPath id="SVGID_00000139289702359484997080000001324211399431386038_">
				<use xlink:href="#SVGID_1_"  style="overflow:visible;"/>
			</clipPath>
			
				<g id="グループ_1782" transform="translate(0 0)" style="clip-path:url(#SVGID_00000139289702359484997080000001324211399431386038_);">
				<path id="パス_4007" class="st1" d="M19.2,14.4c-0.9,0-1.6-0.7-1.6-1.6c0-0.4,0.2-0.9,0.5-1.2l5.7-5.7c0.6-0.6,1.7-0.6,2.3,0
					s0.6,1.7,0,2.3l0,0l-5.7,5.7C20,14.2,19.6,14.4,19.2,14.4"/>
				<path id="パス_4008" class="st1" d="M30.5,14.4c-0.4,0-0.9-0.2-1.2-0.5l-5.7-5.7c-0.6-0.6-0.6-1.7,0-2.3
					c0.6-0.6,1.7-0.6,2.3,0l4.5,4.5L35,5.9c0.6-0.6,1.7-0.6,2.3,0s0.6,1.7,0,2.3l0,0l-5.7,5.7C31.3,14.2,30.9,14.4,30.5,14.4"/>
				<path id="パス_4009" class="st1" d="M40.1,3.1l-6.6,0.2l6.4,6.4L40.1,3.1z"/>
				<path id="パス_4010" class="st1" d="M39.9,11.1c-0.3,0-0.7-0.1-0.9-0.4l-6.4-6.4C32,3.8,32,3,32.5,2.5
					c0.2-0.2,0.6-0.4,0.9-0.4L40,1.8c0.4,0,0.7,0.1,1,0.4c0.3,0.3,0.4,0.6,0.4,1l-0.2,6.6C41.1,10.5,40.6,11.1,39.9,11.1 M36.5,4.6
					l2.1,2.1l0.1-2.2L36.5,4.6z"/>
			</g>
		</g>
	</g>
	<g id="グループ_8145" transform="translate(868.695 729.685)">
		<g>
			<defs>
				<rect id="SVGID_00000052789719425254459170000004187890263365372034_" x="0" width="9.6" height="20.6"/>
			</defs>
			<clipPath id="SVGID_00000089535728306684239850000000816787029006449287_">
				<use xlink:href="#SVGID_00000052789719425254459170000004187890263365372034_"  style="overflow:visible;"/>
			</clipPath>
			
				<g id="グループ_8135" transform="translate(0 0)" style="clip-path:url(#SVGID_00000089535728306684239850000000816787029006449287_);">
				<path id="パス_6934" class="st3" d="M8.6,16.4H4.3V1c0-0.5-0.4-1-1-1c0,0,0,0,0,0H1C0.4,0,0,0.4,0,1v18.7c0,0.5,0.4,1,1,1
					c0,0,0,0,0,0h7.6c0.5,0,1-0.4,1-1l0,0v-2.2C9.6,16.9,9.2,16.4,8.6,16.4L8.6,16.4"/>
			</g>
		</g>
	</g>
</g>
</svg>
