<svg xmlns="http://www.w3.org/2000/svg" width="40" height="40" viewBox="0 0 40 40">
  <g id="グループ_2089" data-name="グループ 2089" transform="translate(-1086 -275.172)">
    <g id="楕円形_52" data-name="楕円形 52" transform="translate(1088 277.172)" fill="#fff" stroke="#ff7d58" stroke-width="2">
      <circle cx="18" cy="18" r="18" stroke="none"/>
      <circle cx="18" cy="18" r="19" fill="none"/>
    </g>
    <path id="パス_4766" data-name="パス 4766" d="M69.868,31.742a1.851,1.851,0,0,0-1.7-.557c-.045.009-.09.02-.134.032a2.673,2.673,0,0,0-1.649,1.627l-.081.171h0a.3.3,0,0,1-.251.2c-.115,0-.215-.1-.271-.252l-.043-.09v0a2.69,2.69,0,0,0-1.674-1.665c-.042-.011-.085-.021-.129-.03a1.85,1.85,0,0,0-1.7.557,2.681,2.681,0,0,0-.556,2.172,5.212,5.212,0,0,0,.769,1.949,9.137,9.137,0,0,0,2.968,2.886,1.335,1.335,0,0,0,.189.111,1.009,1.009,0,0,0,.439.1,1.03,1.03,0,0,0,.494-.132c.026-.014.051-.029.077-.046a9.14,9.14,0,0,0,3.032-2.924,5.226,5.226,0,0,0,.769-1.949,2.68,2.68,0,0,0-.556-2.172" transform="translate(1046.251 256.126)" fill="#ec3239"/>
    <path id="パス_4767" data-name="パス 4767" d="M29.806,31.742a1.85,1.85,0,0,0-1.7-.557c-.045.009-.09.02-.134.032a2.674,2.674,0,0,0-1.649,1.627l-.081.171h0a.3.3,0,0,1-.251.2c-.115,0-.215-.1-.271-.252l-.043-.09v0a2.691,2.691,0,0,0-1.674-1.665c-.043-.011-.086-.021-.129-.03a1.851,1.851,0,0,0-1.7.557,2.681,2.681,0,0,0-.556,2.172,5.216,5.216,0,0,0,.77,1.949,9.129,9.129,0,0,0,2.968,2.886,1.352,1.352,0,0,0,.188.111,1.01,1.01,0,0,0,.44.1,1.03,1.03,0,0,0,.494-.132c.026-.014.051-.029.077-.046a9.139,9.139,0,0,0,3.031-2.924,5.223,5.223,0,0,0,.77-1.949,2.68,2.68,0,0,0-.556-2.172" transform="translate(1073.377 256.126)" fill="#ec3239"/>
    <path id="パス_4768" data-name="パス 4768" d="M46.752,65.2a.926.926,0,0,0-.734-.361h-16.1A.926.926,0,0,0,29.028,66a9.423,9.423,0,0,0,8.943,7.188A9.424,9.424,0,0,0,46.913,66a.926.926,0,0,0-.161-.8" transform="translate(1067.794 233.311)" fill="#ec6b44"/>
  </g>
</svg>
