<?xml version="1.0" encoding="utf-8"?>
<!-- Generator: Adobe Illustrator 26.0.3, SVG Export Plug-In . SVG Version: 6.00 Build 0)  -->
<svg version="1.1" id="グループ_7881" xmlns="http://www.w3.org/2000/svg" xmlns:xlink="http://www.w3.org/1999/xlink" x="0px"
	 y="0px" viewBox="0 0 14 14" style="enable-background:new 0 0 14 14;" xml:space="preserve">
<style type="text/css">
	.st0{clip-path:url(#SVGID_00000074429664875415237410000000191408825532875914_);}
	.st1{fill:#55C5D9;}
</style>
<g>
	<defs>
		<rect id="SVGID_1_" width="14" height="14"/>
	</defs>
	<clipPath id="SVGID_00000070807554880916230520000018102720905860785034_">
		<use xlink:href="#SVGID_1_"  style="overflow:visible;"/>
	</clipPath>
	
		<g id="グループ_7880" transform="translate(0 0)" style="clip-path:url(#SVGID_00000070807554880916230520000018102720905860785034_);">
		<path id="パス_6830" class="st1" d="M13.3,0H4C3.6,0,3.3,0.3,3.3,0.7c0,0,0,0,0,0V10c0,0.4,0.3,0.7,0.7,0.7c0,0,0,0,0,0h9.3
			c0.4,0,0.7-0.3,0.7-0.7V0.7C14,0.3,13.7,0,13.3,0"/>
		<path id="パス_6831" class="st1" d="M10,12.6H1.4V4c0-0.4-0.3-0.7-0.7-0.7S0,3.6,0,4v9.3C0,13.7,0.3,14,0.7,14H10
			c0.4,0,0.7-0.3,0.7-0.7C10.7,12.9,10.4,12.6,10,12.6"/>
	</g>
</g>
</svg>
