<?xml version="1.0" encoding="utf-8"?>
<!-- Generator: Adobe Illustrator 26.0.3, SVG Export Plug-In . SVG Version: 6.00 Build 0)  -->
<svg version="1.1" id="レイヤー_1" xmlns="http://www.w3.org/2000/svg" xmlns:xlink="http://www.w3.org/1999/xlink" x="0px"
	 y="0px" viewBox="0 0 56.9 20.6" style="enable-background:new 0 0 56.9 20.6;" xml:space="preserve">
<style type="text/css">
	.st0{fill:#FFBA00;}
	.st1{fill:#55C5D9;}
	.st2{fill:none;}
	.st3{clip-path:url(#SVGID_00000085217670096135787160000004983806550775840679_);}
	.st4{clip-path:url(#SVGID_00000145762160456629015410000002394624039338908602_);}
</style>
<g id="グループ_8143" transform="translate(-267.379 -729.965)">
	<path id="パス_3971" class="st0" d="M282.5,731h1.9l-1.4,6.4h-1.7L282.5,731z"/>
	<path id="パス_3973" class="st1" d="M300.8,739.7l-6.5-3.8v7.5L300.8,739.7z"/>
	<path id="パス_3974" class="st1" d="M294.3,744.4c-0.5,0-1-0.4-1-1v-7.5c0-0.5,0.4-1,1-1c0.2,0,0.3,0,0.5,0.1l6.5,3.8
		c0.5,0.3,0.6,0.9,0.4,1.3c-0.1,0.2-0.2,0.3-0.4,0.4l-6.5,3.8C294.7,744.3,294.5,744.4,294.3,744.4 M295.3,737.6v4.1l3.5-2
		L295.3,737.6z"/>
	<rect id="長方形_3348" x="267.4" y="730" class="st2" width="56.9" height="20.6"/>
	<g id="グループ_8142" transform="translate(309.75 729.965)">
		<g>
			<defs>
				<rect id="SVGID_1_" x="0" width="9.6" height="20.6"/>
			</defs>
			<clipPath id="SVGID_00000021099013553520822960000011133917755607154561_">
				<use xlink:href="#SVGID_1_"  style="overflow:visible;"/>
			</clipPath>
			
				<g id="グループ_8135" transform="translate(0 0)" style="clip-path:url(#SVGID_00000021099013553520822960000011133917755607154561_);">
				<path id="パス_6934" class="st0" d="M8.6,16.4H4.3V1c0-0.5-0.4-1-1-1c0,0,0,0,0,0H1C0.4,0,0,0.4,0,1v18.7c0,0.5,0.4,1,1,1
					c0,0,0,0,0,0h7.6c0.5,0,1-0.4,1-1l0,0v-2.2C9.6,16.9,9.2,16.4,8.6,16.4L8.6,16.4"/>
			</g>
		</g>
	</g>
	<g id="グループ_8141" transform="translate(271.633 729.965)">
		<g>
			<defs>
				<rect id="SVGID_00000062913518304764615110000001084767380381383096_" x="0" width="13.9" height="20.6"/>
			</defs>
			<clipPath id="SVGID_00000030457141831123282150000012857008005227212940_">
				<use xlink:href="#SVGID_00000062913518304764615110000001084767380381383096_"  style="overflow:visible;"/>
			</clipPath>
			
				<g id="グループ_8139" transform="translate(0 0)" style="clip-path:url(#SVGID_00000030457141831123282150000012857008005227212940_);">
				<path id="パス_6936" class="st0" d="M8.6,16.4H4.3V1c0-0.5-0.4-1-1-1c0,0,0,0,0,0H1C0.4,0,0,0.4,0,1v18.7c0,0.5,0.4,1,1,1
					c0,0,0,0,0,0h7.6c0.5,0,1-0.4,1-1l0,0v-2.2C9.6,16.9,9.2,16.4,8.6,16.4L8.6,16.4"/>
				<path id="パス_6937" class="st0" d="M12.7,0.4C12.5,0.1,12.2,0,11.9,0H10C9.5,0,9.1,0.3,9,0.8L7.8,7.2
					C7.7,7.7,8.1,8.2,8.6,8.3c0.1,0,0.1,0,0.2,0h1.7c0.5,0,0.9-0.3,1-0.8l1.4-6.4C13,0.9,12.9,0.6,12.7,0.4"/>
			</g>
		</g>
	</g>
</g>
</svg>
