<?xml version="1.0" encoding="utf-8"?>
<!-- Generator: Adobe Illustrator 26.0.3, SVG Export Plug-In . SVG Version: 6.00 Build 0)  -->
<svg version="1.1" id="レイヤー_1" xmlns="http://www.w3.org/2000/svg" xmlns:xlink="http://www.w3.org/1999/xlink" x="0px"
	 y="0px" viewBox="0 0 12.5 13.2" style="enable-background:new 0 0 12.5 13.2;" xml:space="preserve">
<style type="text/css">
	.st0{clip-path:url(#SVGID_00000027596139713270369310000001219831025356387458_);}
	.st1{fill:#FFBA00;}
</style>
<g>
	<defs>
		<rect id="SVGID_1_" width="12.5" height="13.2"/>
	</defs>
	<clipPath id="SVGID_00000059301620620823669930000007727832759013601696_">
		<use xlink:href="#SVGID_1_"  style="overflow:visible;"/>
	</clipPath>
	
		<g id="グループ_8035" transform="translate(0 0)" style="clip-path:url(#SVGID_00000059301620620823669930000007727832759013601696_);">
		<path id="パス_6879" class="st1" d="M0,7.3C-0.2,3.4,2.8,0.2,6.7,0C6.8,0,6.9,0,7,0c2.9-0.2,5.4,2,5.5,4.9c0,0.2,0,0.4,0,0.6
			c0,2.9-1.9,4.3-3.5,4.3C8.2,10,7.5,9.5,7.3,8.7h0c-0.5,0.6-1.2,1-1.9,1.1c-1.1,0-2.1-1-2.1-2.1c0-0.1,0-0.2,0-0.3
			c0-1.9,1.3-3.8,3.2-3.8c0.5,0,1,0.3,1.2,0.8h0l0.2-0.7h1.3L8.5,7.1c-0.3,1,0,1.5,0.8,1.5c1,0,2-1.1,2-3c0.2-2.2-1.4-4.2-3.6-4.3
			c-0.2,0-0.5,0-0.7,0C3.7,1.4,1.3,4.1,1.4,7.2c0,0,0,0,0,0c-0.2,2.4,1.7,4.5,4.1,4.7c0.2,0,0.4,0,0.6,0c0.9,0,1.7-0.2,2.5-0.6
			L9,12.4c-0.9,0.5-2,0.8-3.1,0.8C2.8,13.4,0.2,11.1,0,8C0,7.8,0,7.5,0,7.3 M6.9,7.6l0.4-2.2C7.2,5.1,6.8,4.9,6.5,4.9
			c-1,0-1.7,1.4-1.7,2.4c0,0.8,0.4,1.1,0.9,1.1C6.1,8.4,6.5,8.2,6.9,7.6"/>
	</g>
</g>
</svg>
