<svg xmlns="http://www.w3.org/2000/svg" xmlns:xlink="http://www.w3.org/1999/xlink" width="50.004" height="49.124" viewBox="0 0 50.004 49.124">
  <defs>
    <clipPath id="clip-path">
      <rect id="長方形_3327" data-name="長方形 3327" width="50.004" height="42.766" fill="none"/>
    </clipPath>
  </defs>
  <g id="グループ_6833" data-name="グループ 6833" transform="translate(-879.598 -998.071)">
    <rect id="長方形_4270" data-name="長方形 4270" width="49.124" height="49.124" transform="translate(880.092 998.071)" fill="none"/>
    <g id="グループ_1714" data-name="グループ 1714" transform="translate(879.598 1001.477)" clip-path="url(#clip-path)">
      <path id="パス_3832" data-name="パス 3832" d="M64.46.655A5,5,0,0,0,61.724,0H46.159a5,5,0,0,0-2.736.655A6.106,6.106,0,0,0,40.054,6.1V11.1h3.33V6.1a2.744,2.744,0,0,1,.083-.645c.064.062.125.123.2.186L49.739,11.1h.885a5,5,0,0,1,2.736.655,6.151,6.151,0,0,1,1.3.879,6.151,6.151,0,0,0,3.454-1.5L64.22,5.646c.07-.063.132-.124.2-.186A2.744,2.744,0,0,1,64.5,6.1v8.357a2.778,2.778,0,0,1-2.775,2.775H56.729v3.33h4.995a6.112,6.112,0,0,0,6.1-6.1V6.1A6.105,6.105,0,0,0,64.46.655m-8.575,8a3.019,3.019,0,0,1-3.887,0L46.077,3.338c.028,0,.054-.008.082-.008H61.724c.028,0,.054.008.082.008Z" transform="translate(-17.825 0)" fill="#ffba00"/>
      <path id="パス_3833" data-name="パス 3833" d="M44.5,20.674a5.005,5.005,0,0,0-2.733-.667L26.2,19.94a5,5,0,0,0-2.739.643,6.105,6.105,0,0,0-3.392,5.435l-.022,4.995,3.33.014.022-4.995a2.721,2.721,0,0,1,.086-.645c.064.062.125.124.194.187l6.053,5.48.886,0a5,5,0,0,1,2.733.667,6.156,6.156,0,0,1,1.291.885,6.146,6.146,0,0,0,3.46-1.488l6.134-5.458c.07-.063.132-.124.2-.186a2.752,2.752,0,0,1,.08.645l-.036,8.357a2.778,2.778,0,0,1-2.787,2.763L36.7,37.222l-.014,3.33,4.995.022a6.112,6.112,0,0,0,6.131-6.079l.036-8.357A6.106,6.106,0,0,0,44.5,20.674m-8.609,7.961A3.019,3.019,0,0,1,32,28.618l-5.9-5.34c.028,0,.054-.008.082-.008l15.565.067c.028,0,.054.007.082.008Z" transform="translate(-8.922 -8.873)" fill="#55c5d9"/>
      <path id="パス_3834" data-name="パス 3834" d="M24.406,40.655A5,5,0,0,0,21.67,40H6.1a5,5,0,0,0-2.736.655A6.106,6.106,0,0,0,0,46.1v8.357a6.112,6.112,0,0,0,6.1,6.1H21.67a6.112,6.112,0,0,0,6.1-6.1V46.1a6.106,6.106,0,0,0-3.369-5.449M21.67,43.33c.028,0,.054.008.082.008l-5.921,5.314a3.019,3.019,0,0,1-3.887,0L6.023,43.338c.028,0,.054-.008.082-.008Zm2.775,11.132a2.778,2.778,0,0,1-2.775,2.775H6.1A2.778,2.778,0,0,1,3.33,54.462V46.1a2.72,2.72,0,0,1,.084-.645c.064.062.125.124.195.186L9.72,51.131a6.388,6.388,0,0,0,8.335,0l6.111-5.484c.07-.063.132-.124.2-.186a2.748,2.748,0,0,1,.083.645Z" transform="translate(0 -17.801)" fill="#ffba00"/>
    </g>
  </g>
</svg>
