<svg id="グループ_7538" data-name="グループ 7538" xmlns="http://www.w3.org/2000/svg" xmlns:xlink="http://www.w3.org/1999/xlink" width="20.465" height="15.129" viewBox="0 0 20.465 15.129">
  <defs>
    <clipPath id="clip-path">
      <rect id="長方形_4622" data-name="長方形 4622" width="20.465" height="15.129" fill="#797979"/>
    </clipPath>
  </defs>
  <g id="グループ_2740" data-name="グループ 2740" clip-path="url(#clip-path)">
    <path id="パス_5020" data-name="パス 5020" d="M18.148,7.431a4.278,4.278,0,0,0-5.033-4.7,5.042,5.042,0,0,0-9.488,1.7,4.732,4.732,0,0,0,1.1,9.334H7.393V12.3H4.73A3.262,3.262,0,0,1,4.4,5.793a.735.735,0,0,0,.661-.739c0-.007,0-.015,0-.023A3.573,3.573,0,0,1,12,3.851a.734.734,0,0,0,.943.446A2.807,2.807,0,0,1,16.57,7.8a.734.734,0,0,0,.686.961,1.768,1.768,0,0,1-.03,3.536H13.152V13.77h4.074a3.236,3.236,0,0,0,.922-6.339" transform="translate(0.001)" fill="#797979"/>
    <path id="パス_5021" data-name="パス 5021" d="M99.535,98.817l-3.153,3.154,1.021,1.021,1.41-1.411v5.108h1.444v-5.106l1.41,1.41,1.021-1.021Z" transform="translate(-89.304 -91.56)" fill="#797979"/>
  </g>
</svg>
